<svg width="260" height="90" viewBox="0 0 260 90" fill="none" xmlns="http://www.w3.org/2000/svg">
<path fill-rule="evenodd" clip-rule="evenodd" d="M57.9548 40.3362C58.9108 39.4712 60.9595 38.5607 64.4195 37.5136C61.9155 36.6031 59.5482 37.286 57.4084 39.4712C57.5906 40.1996 57.7727 40.4273 57.9548 40.3362Z" fill="#187FBB"/>
<path fill-rule="evenodd" clip-rule="evenodd" d="M56.589 48.5309C59.8213 48.8496 61.005 47.3928 60.0034 44.2059C61.0961 43.523 61.9155 44.3425 62.4619 46.7554C62.9171 44.6157 62.1432 43.2499 60.3221 42.7946C60.2311 42.7946 60.1855 42.7491 60.0945 42.7491C59.8213 42.7491 59.5937 42.7946 59.3661 42.8401C59.0929 42.8857 59.0474 42.4759 59.3206 42.3849C60.1856 41.9751 61.1416 41.793 62.0521 41.8386C58.7287 40.3817 57.1353 41.8386 56.2248 45.5717C55.9516 46.4822 55.6785 48.3943 55.5874 49.6691C56.1337 49.1683 56.3614 48.8041 56.589 48.5309ZM59.1384 45.0709C59.4571 44.9799 59.7303 45.1164 59.8213 45.3441C59.9124 45.6172 59.7303 45.8904 59.4571 46.027C59.1384 46.118 58.8653 45.9814 58.7742 45.7538C58.6832 45.4351 58.8198 45.162 59.1384 45.0709Z" fill="#187FBB"/>
<path fill-rule="evenodd" clip-rule="evenodd" d="M48.3033 72.1135C48.531 72.159 48.8952 72.3866 49.1683 72.3866C49.6236 72.3866 50.3065 72.1135 50.2609 71.7493C50.2609 71.7037 50.261 71.6582 50.2154 71.6127C50.1699 71.5216 50.0788 71.4761 49.8967 71.4306C49.1228 71.2485 48.2578 71.2029 47.4839 71.2485C46.8465 71.2485 46.2091 71.294 45.5718 71.3851C45.5262 71.4306 45.4807 71.4761 45.4352 71.5216C46.0725 71.6582 46.7554 71.8403 47.4383 71.9314C47.666 71.9769 47.9846 72.0224 48.3033 72.1135Z" fill="#187FBB"/>
<path fill-rule="evenodd" clip-rule="evenodd" d="M41.5655 37.6501C42.6581 37.7412 43.2954 37.6046 43.7507 37.0128C39.016 34.0081 35.2373 33.7349 32.5057 36.1933C36.421 35.1917 39.3802 35.647 41.5655 37.6501Z" fill="#187FBB"/>
<path fill-rule="evenodd" clip-rule="evenodd" d="M41.7475 0C18.7568 0 0 18.7113 0 41.7475C0 51.8998 3.6421 61.1872 9.69708 68.4258C9.46945 69.0177 9.24182 69.6551 8.96866 70.2469C8.46787 71.4761 8.5134 73.4792 9.10524 74.7085C10.0158 76.575 10.7897 78.3961 11.5181 80.1261C11.9734 81.4008 12.4742 82.4934 13.0205 83.4495C14.2042 85.8624 15.4334 87.8655 17.0723 89.0037C17.5731 89.3679 18.2105 89.5045 18.8478 89.3679C19.3031 89.2768 19.7584 89.1858 20.2136 89.0947C21.4428 88.8216 22.7176 88.8216 23.6281 88.1842C27.4523 85.4982 29.7741 84.4055 31.5041 82.2658C31.5496 82.2203 31.5496 82.1747 31.5952 82.1747C34.8275 82.9942 38.242 83.404 41.702 83.404C64.6927 83.404 83.4495 64.6927 83.4495 41.6564C83.495 18.7113 64.7838 0 41.7475 0ZM30.1383 77.2579C25.6312 79.3977 22.4444 81.3098 23.3549 81.9471C29.3189 78.9879 31.5952 76.6206 30.5936 80.8545C28.8636 83.3584 23.9013 85.0429 21.716 85.5437C19.9405 85.9534 27.0426 86.1355 21.9892 87.1371C21.3973 87.2737 20.3047 87.0461 19.7128 86.864C19.3031 86.7274 19.121 86.4997 19.3031 85.9534C19.3941 85.7258 19.4397 85.4982 19.4852 85.225C19.5307 84.7697 19.2121 84.4055 18.7568 84.3145C17.6186 84.0413 16.9813 83.5861 17.0723 82.1292C17.4365 81.0821 17.5731 80.035 17.1178 79.6253C15.4334 78.7603 14.2042 77.6677 14.2497 75.5279C14.3408 75.1182 14.5684 74.4808 14.705 73.8435C14.8415 73.1606 14.5229 72.4777 13.9765 72.1135C13.3392 71.6582 12.6563 71.1574 12.4742 70.4745C12.2921 69.8827 12.4287 67.4243 11.9279 67.7885C10.1979 68.9722 12.4742 64.2374 10.7442 60.1856C10.1523 58.7743 9.74261 57.9093 8.96866 55.9062C8.3313 53.4933 8.64997 52.4006 9.97023 51.5812C12.4286 50.7162 15.4334 53.2201 16.3439 58.1825C16.7081 60.1856 13.3392 61.9156 13.1571 65.3301C12.8839 66.6503 13.8855 67.5153 15.0692 66.8324C17.8007 64.8293 20.4413 63.0993 24.8573 61.5969C27.7254 61.0961 28.5904 63.6001 27.6344 65.239C25.4947 66.1951 20.077 69.3819 18.6657 70.3379C18.4381 70.4745 18.9844 71.0664 19.2121 70.9298C20.3502 70.338 25.2215 67.6974 26.4962 67.2877C29.501 66.2861 30.3204 68.1527 29.8196 70.8387C29.0002 71.6582 23.6736 74.4353 20.9876 76.6206C20.7599 76.8027 20.851 77.7587 21.1241 77.6221C22.2623 76.9392 27.4068 73.98 28.2718 73.4793C30.3204 72.3411 31.1399 72.9785 31.2765 75.2092C31.3675 76.1198 30.8668 76.8937 30.1383 77.2579ZM20.7144 26.6783C20.5323 26.041 20.8055 25.0394 21.716 24.3565C20.7144 22.2623 20.6689 20.2136 21.5794 18.1649C21.9891 17.6186 22.5355 17.1634 23.0818 16.7536C24.0834 16.0707 25.267 15.5699 26.4507 15.2513C27.9986 14.8415 29.592 14.705 31.1854 14.8871C31.9594 14.9781 32.7333 15.1602 33.4162 15.5244C34.1446 15.8431 34.782 16.3439 35.4649 16.7536C36.9673 17.7552 38.4696 19.0755 39.972 20.851C41.8841 23.1273 44.7522 24.4476 47.757 24.2655C50.352 24.1289 53.038 23.3549 54.1306 22.0802C56.2704 19.5763 50.1698 8.64998 59.3661 15.4334C60.6864 16.7081 61.688 17.9373 62.2798 19.212C63.418 21.6705 64.1009 25.4947 64.2374 30.6846C65.6488 34.782 66.1951 37.3315 65.9674 38.3786C65.148 41.1101 64.6472 42.7035 65.0569 43.7051C64.6927 44.6157 64.4651 45.9814 63.8732 47.5293C63.7367 48.3033 63.6456 48.9406 63.5546 49.6691C62.7806 49.6691 57.0443 49.578 54.4948 51.308C54.1306 51.5356 53.7664 51.3991 53.7209 50.9438C53.6754 50.5341 53.6298 49.8967 53.7664 48.8951C53.8119 48.3033 53.9485 47.7114 54.0851 47.2106C54.2217 46.7099 54.3583 46.2091 54.5404 45.7993C54.6769 45.3896 54.8591 45.0254 54.9956 44.7522C55.1322 44.4791 55.2233 44.2514 55.3143 44.0693C55.4054 43.9328 55.0867 43.523 55.0867 43.523C55.0867 43.523 55.0412 43.6141 54.9046 43.7051C54.8135 43.8417 54.6314 44.0238 54.4493 44.297C54.2672 44.5701 54.0396 44.8888 53.812 45.2985C53.6754 45.4806 53.5843 45.7083 53.4477 45.9359C53.3567 46.1636 53.2201 46.3912 53.1291 46.6643C52.9014 47.1651 52.7193 47.757 52.5827 48.3943C52.4462 49.0317 52.3551 49.7146 52.3551 50.443C52.3551 50.5796 52.3551 50.7162 52.3551 50.8527C51.5356 50.6251 50.6706 50.6251 49.8512 50.8072C49.7146 50.8527 49.5325 50.8983 49.3959 50.9438C49.3504 50.2154 49.2138 49.4414 48.9406 48.6675C48.8496 48.3943 48.3033 47.8025 48.0301 47.1651C47.4838 45.9814 46.892 44.7522 45.9814 43.7507C45.0709 42.7491 43.8417 42.2028 42.567 41.8386C41.6109 41.5654 40.6094 41.3833 39.6533 41.4743C37.8778 41.5654 36.4665 42.4304 35.4649 43.7962C36.2844 43.1133 37.5136 42.658 39.3346 42.658C39.6988 42.7036 41.1557 42.4759 41.793 43.432C41.1101 42.9312 40.1086 43.1588 39.2891 43.3865C36.6486 44.2059 35.4194 46.0725 35.2828 49.1683C36.1478 47.8025 36.2388 47.1651 36.9217 46.5733C36.8307 47.6204 37.1038 48.8496 39.6078 48.7585C41.5199 48.7585 41.6109 45.0254 40.7915 44.6612C41.3833 44.3425 42.0662 44.6157 42.7036 45.162C43.2954 46.027 43.7051 47.2106 43.9783 48.5764C44.9343 52.5372 46.8464 43.5686 47.9391 51.3535C47.9846 51.7633 47.8025 52.0819 47.5293 52.3551C47.3472 52.5827 46.983 52.5827 46.7554 52.4006C46.4822 52.173 46.118 51.9909 45.7538 51.9454C44.5246 51.7633 43.2043 51.6722 41.8386 51.6722C39.972 51.6722 38.1054 51.8543 36.4209 52.2185C35.7836 52.3551 35.4649 52.6738 35.2828 52.9014L22.7631 42.7036C22.7631 41.3378 22.2168 38.0144 22.3989 36.7852C22.3989 33.5073 24.402 31.1854 22.4899 30.3204C21.3973 29.6375 21.9436 28.8181 23.4005 27.2247C21.9436 27.3612 21.5339 27.771 20.8965 28.1807C20.9876 27.8165 21.1241 26.8149 23.0362 26.0865C22.1257 25.6312 21.0786 26.4052 20.7144 26.6783ZM35.1462 65.9219C35.2373 66.6503 35.4194 67.3332 35.6015 68.0161C35.647 68.2437 35.7381 68.5169 35.7836 68.7445C36.1933 70.3379 37.6046 72.6143 37.8323 73.5248C37.8778 73.7524 37.9688 73.98 38.0599 74.2077L38.0144 74.1621C37.6957 73.889 37.2859 73.5703 36.7852 73.2061C34.5999 71.7948 32.7333 70.6111 31.0944 69.5185C31.1399 67.5609 30.4115 66.2861 28.9091 65.7398C30.9578 62.2343 27.4523 59.8214 24.7662 60.6864C24.2655 60.823 23.8557 61.0051 23.4005 61.1417C23.1728 60.4588 23.0362 59.6848 22.9452 58.8654C23.2639 57.9548 23.5826 56.9988 23.8557 56.0883C24.2199 54.7225 23.9468 50.0788 23.8102 49.3504C23.5826 47.6659 23.4005 46.5277 23.1728 45.7538C22.9452 45.0709 22.4899 44.5246 22.3989 44.0693L35.1462 55.0412C35.1917 55.5419 35.2373 56.0427 35.2828 56.7711C35.2828 57.363 35.9657 58.0003 36.7852 58.0914C37.9688 58.2735 39.2436 58.3646 40.5183 58.3646C42.1572 58.3646 43.7962 58.228 45.2985 57.9548C44.9343 58.9109 45.1164 60.914 48.4854 59.7759C48.8951 59.5482 49.8512 59.8214 50.1243 60.0035C50.1699 60.049 50.3975 64.1009 50.2609 64.1464C49.7146 64.1464 49.8056 63.2359 48.2122 63.0993C45.0254 62.9172 42.6125 64.0098 38.2875 62.8717C38.5607 62.8261 38.7883 62.7351 39.0615 62.644C39.7444 62.4164 40.4272 62.1432 41.0191 61.8246C41.6565 61.4603 42.2483 61.0051 42.7491 60.5043C43.2499 60.0035 43.6596 59.4117 43.9328 58.7743C43.3864 59.2296 42.8857 59.6393 42.2938 59.958C41.7475 60.3222 41.1557 60.5498 40.5638 60.7774C39.972 61.0051 39.3346 61.1872 38.6973 61.3238C38.3786 61.3693 38.0599 61.4603 37.7412 61.5059L37.2404 61.5969C37.1494 61.5969 37.0583 61.6424 36.9673 61.688C36.9217 61.688 36.8307 61.7335 36.7852 61.7335C36.7396 61.7335 36.6941 61.779 36.603 61.8246C36.5575 61.8701 36.5575 61.8701 36.4665 61.9156C36.4209 61.9611 36.4209 61.9611 36.3754 62.0067C36.3299 62.0522 36.2844 62.0977 36.2844 62.1888C36.2388 62.3253 36.1933 62.5074 36.2388 62.644C36.4665 63.509 36.8762 64.1919 37.2404 64.8748C37.6502 65.5577 38.0144 66.1951 38.3786 66.8324C38.7428 67.4698 39.0615 68.1072 39.2891 68.7901C39.5623 69.4729 39.6988 70.2014 39.6988 70.9753C39.972 70.2469 40.063 69.4274 39.972 68.6535C39.8809 67.834 39.6533 67.0601 39.3801 66.3316C39.2891 66.1495 39.2436 65.9219 39.1525 65.7398C40.1086 66.7869 41.0646 67.743 42.2483 68.5169C46.2091 71.1119 50.1243 70.429 50.6251 70.2469C52.0364 69.7916 53.2656 69.0177 54.3583 68.0616C55.8606 66.7414 56.9988 64.9203 58.3646 63.418C58.0914 64.1009 57.7272 64.8293 57.4085 65.5577C57.1354 66.2861 56.8167 67.0601 56.6801 67.8795C57.1809 67.2422 57.6361 66.6048 58.0914 65.9674C58.5467 65.2845 58.9564 64.6472 59.3206 63.8732C59.4117 63.6911 59.5027 63.509 59.5483 63.2814C59.5938 63.1903 59.6393 63.0538 59.6393 62.9172C59.6848 62.7806 59.6848 62.644 59.6848 62.4619C59.6848 62.3709 59.6393 62.1888 59.5027 62.0522C59.4572 62.0067 59.4117 61.9156 59.3661 61.9156C59.2751 61.8245 59.184 61.779 59.093 61.688C58.9109 61.5514 58.7743 61.4603 58.5922 61.3693C57.9093 60.9596 57.2719 60.5953 56.6801 60.049C56.7256 60.4588 56.9533 60.8685 57.1809 61.1872C57.4085 61.5514 57.7272 61.8246 58.0004 62.0977L58.4101 62.4619C56.5891 62.8717 52.9469 62.644 52.5827 63.0538C52.3551 62.1888 51.4901 60.914 51.4901 60.1401C51.7633 60.1856 52.082 60.1856 52.4006 60.0946C52.5827 60.049 52.7649 59.958 52.947 59.8669C53.1291 59.7759 53.2656 59.6848 53.4022 59.5938C53.5388 59.5027 53.6754 59.4117 53.812 59.3206C53.9485 59.2296 54.0851 59.1385 54.2672 59.0019C54.9956 58.5011 55.3598 57.454 55.0411 56.5435C54.9501 56.3159 54.9046 55.9061 55.0867 56.0883C55.3598 56.3614 55.8151 56.5435 56.2248 56.589C56.7256 56.6346 57.2264 56.6346 57.7272 56.6346C61.1417 56.6801 64.0553 55.8606 64.0553 55.8606C64.5106 58.7288 64.4651 61.0961 63.0993 62.644C58.0459 69.7461 57.454 70.9298 55.5875 71.4306C55.0867 71.5672 54.6769 71.9314 54.4948 72.4321C54.2672 72.9785 54.0851 73.4793 53.8575 73.9345C52.2185 76.1653 50.5796 77.5311 48.3033 77.1214C46.892 77.349 45.2986 77.2124 43.8417 76.9848C43.1588 76.8937 42.567 76.5295 42.0207 76.0287C41.4288 75.4824 41.2012 74.754 40.6549 74.1621C40.1541 73.5703 39.6078 73.024 39.1525 72.3866C38.6973 71.7037 38.2875 71.0208 37.9233 70.2924C37.1949 68.7901 36.6031 67.2422 35.7836 65.7853C35.6925 65.6032 35.2828 64.7382 35.0552 65.0114C34.9641 65.1935 35.1007 65.7853 35.1462 65.9219ZM36.0567 53.8119C36.0567 53.7209 36.1023 53.2656 36.5575 53.1746C38.1509 52.8559 39.972 52.6738 41.793 52.6738C43.1133 52.6738 44.388 52.7648 45.5717 52.9469C45.9814 52.9925 46.3001 53.4477 46.2546 53.8575C46.1635 54.9956 46.027 56.5435 46.027 56.5435C46.027 56.6801 45.7538 56.9988 45.2985 57.0898C43.7962 57.363 42.1117 57.5451 40.4273 57.5451C39.1525 57.5451 37.9688 57.454 36.7852 57.2719C36.6941 57.2719 36.6031 57.2264 36.5575 57.1809C36.2388 57.0443 36.1478 56.7711 36.1478 56.4525C36.1023 55.5419 36.1023 55.0411 36.0567 53.8119ZM49.578 56.589C48.622 55.0867 49.3959 53.903 49.3959 51.9454C49.578 51.8543 49.8056 51.8088 50.0333 51.7633C50.5796 51.6267 51.4446 51.5812 52.4462 51.8543C52.4917 52.1275 52.4917 52.4462 52.5372 52.7193C52.6738 53.4477 52.8559 54.2217 53.0835 54.9046C53.2201 55.2688 53.3567 55.633 53.4933 55.9517C53.5843 56.1338 53.6298 56.3159 53.7209 56.4525C53.8119 56.6346 53.903 56.8167 53.9485 56.9077C54.1306 57.363 53.9941 57.9093 53.6298 58.228C53.3567 58.4556 53.1291 58.6377 52.8559 58.8654C52.5827 59.093 52.4006 59.2296 52.173 59.3206C51.9454 59.4117 51.6722 59.4572 51.4446 59.4117C51.308 59.4117 51.217 59.3661 51.0804 59.3206L50.9893 59.2751L50.8983 59.2296C50.8528 59.184 50.7617 59.184 50.7162 59.1385C50.443 59.0475 50.2154 58.9109 49.9878 58.8198C49.7601 58.7288 49.5325 58.5922 49.2593 58.5922C49.0317 58.5467 48.8041 58.5467 48.622 58.5467C48.4399 58.5467 48.2578 58.5467 48.0756 58.5467C47.6659 58.5467 47.3928 58.5467 47.2562 58.5467C45.9814 57.6361 47.8025 56.7256 48.4854 56.9077C50.2609 58.7288 52.1275 58.7288 53.038 56.9077C51.7633 58.0003 50.8983 58.319 49.578 56.589ZM56.4069 63.6001C57.0443 63.2814 57.1809 63.6911 56.498 64.5106C55.1777 65.6943 53.4022 68.0161 50.9893 68.2893C42.4759 69.2908 39.107 64.283 39.107 63.6911C50.6251 65.8309 53.5388 64.6472 56.4069 63.6001ZM56.2704 55.7696C55.2233 55.6785 54.9046 54.2672 54.768 52.5372C54.6769 52.173 55.2233 51.8543 55.6785 51.7177C57.8638 51.0804 60.4132 50.7162 62.8261 50.7162C63.0538 50.7162 64.4195 50.7617 64.4195 50.7617C64.5561 50.7617 64.9203 50.8072 65.0114 50.9438C65.3301 51.6267 65.3756 54.5859 64.9203 54.9046C64.5561 55.1777 60.1856 56.1793 56.2704 55.7696ZM65.0114 47.8025C64.9203 47.8935 64.6927 47.8025 64.7382 47.6659C65.1024 45.7538 65.2845 45.1164 66.1951 43.5686C66.5137 43.1133 67.5608 43.0678 66.878 43.9783C66.1495 45.162 65.5577 47.2106 65.0114 47.8025ZM41.0646 46.027C41.1101 46.3456 40.8825 46.6643 40.5183 46.7554C40.1541 46.8464 39.7899 46.6188 39.7444 46.3001C39.6988 45.9814 39.9265 45.6628 40.2907 45.5717C40.6549 45.5262 41.0191 45.7083 41.0646 46.027ZM22.0347 47.6204C22.1712 48.1212 22.3078 48.5764 22.3078 49.0772C22.3534 49.578 22.4444 50.0333 22.3989 50.4885C22.3989 50.9438 22.3989 51.3991 22.3534 51.8088C22.3078 52.2185 22.2623 52.6283 22.1713 52.9925C22.1257 53.1746 22.1257 53.3567 22.0802 53.4933C22.0347 53.6754 21.9892 53.8119 21.9436 53.9485C21.8526 54.2217 21.807 54.4948 21.716 54.6769C21.5794 55.0867 21.4884 55.3143 21.4884 55.3143C21.4884 55.3143 21.4428 55.0867 21.3973 54.6314C21.3973 54.4038 21.3518 54.1762 21.3518 53.903C21.3518 53.6298 21.3063 53.3112 21.3063 52.9469C21.2607 52.5827 21.2607 52.2185 21.2152 51.8088C21.1697 51.3991 21.1242 50.9893 21.0786 50.5796C21.0331 50.1698 20.9421 49.7146 20.851 49.3049C20.8055 48.8496 20.6689 48.4398 20.5323 48.0301L20.4413 47.7114C20.3957 47.6204 20.3502 47.4838 20.3502 47.3927C20.2592 47.1651 20.2136 46.983 20.1226 46.7554C19.9405 46.3456 19.8039 45.9359 19.6218 45.5717C19.5307 45.3896 19.4397 45.2075 19.3486 45.0254C19.2576 44.8433 19.121 44.7067 19.03 44.5246C18.8478 44.2059 18.6202 43.8872 18.4381 43.6141C18.2105 43.3409 18.0284 43.1133 17.8463 42.8857C17.6642 42.658 17.4821 42.5214 17.3455 42.3393C17.2089 42.2028 17.0723 42.0662 16.9813 42.0207C16.8902 41.9296 16.8447 41.9296 16.8447 41.9296C16.8447 41.9296 17.0723 41.9751 17.482 42.1117C17.6642 42.2028 17.9373 42.2938 18.1649 42.4304C18.4381 42.567 18.7113 42.7491 19.03 42.9767C19.3031 43.2043 19.6218 43.4775 19.8949 43.7962C20.0315 43.9783 20.2136 44.1149 20.3047 44.297C20.4413 44.4791 20.5778 44.6612 20.7144 44.8433C20.851 45.0254 20.9421 45.253 21.0786 45.4807C21.1697 45.7083 21.3063 45.8904 21.3973 46.118C21.716 46.6643 21.9436 47.1196 22.0347 47.6204ZM41.7475 81.6284C38.4696 81.6284 35.2828 81.2187 32.2325 80.4903C32.5057 79.3066 32.5967 77.8953 31.8228 77.5311C32.5512 75.3458 32.4602 73.7524 31.2765 72.7508C30.9578 72.4777 30.7757 72.159 30.7757 71.7493C33.4162 73.7069 36.2388 75.2548 39.3346 76.3019C39.4257 76.4385 39.5167 76.575 39.6533 76.6661C39.6988 76.7116 39.6988 76.7116 39.7444 76.7571C39.8354 76.8482 39.9265 76.9392 40.0175 77.0303C40.063 77.0758 40.063 77.0758 40.1086 77.1214C40.2451 77.2124 40.3362 77.3035 40.4728 77.44C40.6093 77.5311 40.7459 77.6221 40.8825 77.7132C40.928 77.7132 40.9736 77.7587 40.9736 77.7587C41.0646 77.8042 41.2012 77.8953 41.2923 77.9408C41.3378 77.9408 41.3833 77.9863 41.4288 77.9863C41.5654 78.0319 41.702 78.0774 41.8386 78.1684C41.8841 78.1684 41.8841 78.1684 41.9296 78.214C42.0662 78.2595 42.2483 78.305 42.4304 78.3505C42.4759 78.3505 42.5215 78.3961 42.6125 78.3961C42.7491 78.4416 42.8401 78.4416 42.9767 78.4871C43.0222 78.4871 43.1133 78.5327 43.1588 78.5327C43.2954 78.5782 43.432 78.5782 43.5686 78.5782C43.6141 78.5782 43.6596 78.5782 43.7507 78.5782C43.9328 78.5782 44.1149 78.6237 44.297 78.6237C44.388 78.6237 44.4336 78.6237 44.5246 78.6237C44.6612 78.6237 44.7978 78.6237 44.9343 78.6237C45.0254 78.6237 45.1165 78.6237 45.2075 78.6237C45.3441 78.6237 45.4807 78.6237 45.6628 78.6237C45.7538 78.6237 45.7993 78.6237 45.8904 78.6237C45.8904 78.6237 45.8904 78.6237 45.9359 78.6237C46.9375 78.5782 48.0301 78.3961 49.2138 78.1684C52.8559 77.349 55.0867 75.6645 56.0427 73.1606C56.9077 72.2956 57.8182 71.385 58.6832 70.429C60.5953 71.385 63.2814 72.7964 64.8293 74.3898C58.228 78.9424 50.3064 81.6284 41.7475 81.6284ZM65.6032 73.7069C64.0553 71.9314 61.779 70.1103 59.7759 69.1087C62.0977 66.5137 64.1464 64.0098 64.8748 62.5985C65.7398 60.049 65.5577 57.5451 65.0569 55.724C65.8764 55.5875 66.0585 54.9956 66.013 54.2217C66.013 52.9469 66.013 52.3096 66.013 51.1259C65.9674 50.7617 65.7398 50.443 65.3756 50.2154C65.6032 47.7114 66.3772 45.6172 67.6974 43.3409C67.9251 41.9296 67.3332 41.3833 66.3772 42.1572C67.0601 40.0175 67.7885 36.512 68.699 31.6407C68.9266 30.457 68.8356 29.2733 68.4259 28.1807C64.9203 18.3926 58.6833 11.8368 49.7601 8.60445C44.5246 5.23551 26.132 6.37366 20.3047 16.8447L20.2591 16.8902C20.0315 17.1634 19.8039 17.4365 19.6218 17.7552C19.5763 17.8463 19.4852 17.9373 19.4397 18.0284C19.3031 18.256 19.121 18.4836 18.9844 18.7113C18.9389 18.8023 18.8478 18.9389 18.8023 19.0299C18.6657 19.2576 18.5292 19.4852 18.4381 19.7128C18.3926 19.8039 18.3015 19.9405 18.256 20.0315C18.1194 20.3047 18.0284 20.5323 17.8918 20.8055C17.8463 20.8965 17.8007 20.9876 17.7552 21.0786C17.4365 21.807 17.2089 22.5355 16.9813 23.3094C16.9357 23.4005 16.9357 23.4915 16.8902 23.5826C16.7992 23.8557 16.7536 24.1744 16.6626 24.4476C16.6171 24.5841 16.6171 24.7207 16.5715 24.8573C16.526 25.1304 16.4805 25.4036 16.435 25.6768C16.435 25.8133 16.3894 25.9499 16.3894 26.132C16.3439 26.4052 16.2984 26.7239 16.2984 26.997C16.2984 27.1336 16.2529 27.2702 16.2529 27.4068C16.2073 27.7254 16.2073 28.0896 16.2073 28.4539C16.2073 28.5449 16.2073 28.636 16.2073 28.727C16.2073 29.1823 16.2073 29.6375 16.2073 30.0928C16.2073 30.1839 16.2073 30.2749 16.2073 30.366C16.2073 30.7302 16.2529 31.1399 16.2529 31.5041C16.2529 31.6862 16.2984 31.8228 16.2984 32.0049C16.3439 32.3236 16.3439 32.6423 16.3894 33.0065C16.3894 33.1886 16.435 33.3707 16.435 33.5528C16.4805 33.8715 16.526 34.1902 16.5715 34.5544C16.6171 34.7365 16.6171 34.9186 16.6626 35.1007C16.7081 35.4649 16.7992 35.8291 16.8447 36.1933C16.8902 36.3754 16.8902 36.512 16.9357 36.6941C17.0268 37.2404 17.1634 37.7867 17.2544 38.333C17.2999 38.333 17.3455 38.333 17.3455 38.3786C17.391 38.3786 17.4365 38.4241 17.4365 38.4241H17.482C17.5276 38.4241 17.5276 38.4696 17.5731 38.4696C17.6186 38.5151 17.7097 38.5151 17.7552 38.5607C18.7113 38.9704 20.077 39.9265 20.8965 41.5199L21.2152 42.5215C20.1681 41.0191 19.1665 40.3362 18.3015 40.1086C14.705 38.6517 13.1571 41.2467 16.3439 46.3001C19.121 50.7162 19.5307 53.4477 19.121 57.2719C18.9844 58.4101 19.6218 58.8198 20.6234 58.5922C21.2152 58.4556 21.716 58.9564 21.5794 59.5482C21.5339 59.7304 21.5339 59.9125 21.4884 60.049C21.4884 60.0946 21.4884 60.1856 21.4884 60.2311C21.4884 60.3222 21.4884 60.3677 21.4884 60.4588C21.4884 60.914 21.5794 61.3693 21.7615 61.8701C19.4852 62.7351 18.1194 63.5545 16.526 64.4651C16.9357 61.7335 17.8463 60.914 17.5276 58.6833C17.2544 56.8167 16.7536 54.2217 15.2968 52.6283C11.1084 48.0301 7.83051 50.7617 6.96551 52.6738C6.37367 53.994 7.55734 57.2719 9.7426 62.7351C10.0158 63.9643 10.1523 65.1935 10.1523 66.3772C4.87131 59.5938 1.73 51.0804 1.73 41.8841C1.73 19.8949 19.6218 1.95763 41.6565 1.95763C63.6456 1.95763 81.5829 19.8494 81.5829 41.8841C81.674 54.768 75.3458 66.4227 65.6032 73.7069Z" fill="#187FBB"/>
<path d="M260 37.7412H90.9158V74.4808H260V37.7412Z" fill="#3DB76D"/>
<path d="M105.757 66.7414V45.162H121.1V46.6189H107.351V55.0867H119.688V56.5436H107.351V65.1935H121.236V66.6504H105.757V66.7414Z" fill="white"/>
<path d="M141.951 66.7414L134.302 56.7712L126.654 66.7414H124.787L133.392 55.7241L125.06 45.162H126.973L134.348 54.6315L141.678 45.162H143.544L135.304 55.6786L143.863 66.6959H141.951V66.7414Z" fill="white"/>
<path d="M155.426 58.6833H149.599V66.7414H148.006V45.162H155.836C160.571 45.162 163.849 47.5749 163.849 51.7633V51.8088C163.849 56.3615 159.933 58.6833 155.426 58.6833ZM162.255 51.8544C162.255 48.4399 159.615 46.6644 155.745 46.6644H149.599V57.2265H155.517C159.524 57.2265 162.255 55.1322 162.255 51.9454V51.8544Z" fill="white"/>
<path d="M168.583 66.7414V45.162H183.926V46.6189H170.177V55.0867H182.514V56.5436H170.177V65.1935H184.062V66.6504H168.583V66.7414Z" fill="white"/>
<path d="M204.731 66.7414L197.857 57.8183H190.8V66.7414H189.207V45.162H198.267C202.91 45.162 205.96 47.666 205.96 51.3081V51.3536C205.96 54.9501 203.274 56.9988 199.632 57.4996L206.734 66.6959H204.731V66.7414ZM204.367 51.3536C204.367 48.4399 202.091 46.6189 198.175 46.6189H190.8V56.3159H198.084C201.681 56.3159 204.367 54.4949 204.367 51.3991V51.3536Z" fill="white"/>
<path d="M218.753 46.6644V66.7414H217.16V46.6644H209.648V45.162H226.265V46.6189H218.753V46.6644Z" fill="white"/>
<path d="M237.965 67.0601C234.505 67.0601 231.865 65.922 229.27 63.6001L230.317 62.4164C232.684 64.6017 234.87 65.6033 238.056 65.6033C241.289 65.6033 243.52 63.7822 243.52 61.3238V61.2783C243.52 59.002 242.336 57.6817 237.419 56.6801C232.229 55.633 230.135 53.8575 230.135 50.6252V50.5796C230.135 47.3928 233.049 44.9344 237.055 44.9344C240.196 44.9344 242.245 45.7994 244.43 47.5749L243.429 48.8496C241.38 47.0741 239.377 46.4367 237.009 46.4367C233.823 46.4367 231.728 48.2578 231.728 50.4886V50.5341C231.728 52.8104 232.912 54.2217 238.011 55.2688C243.019 56.2704 245.113 58.0914 245.113 61.2328V61.2783C245.113 64.6472 242.108 67.0601 237.965 67.0601Z" fill="white"/>
<path d="M97.6537 29.8196L94.6034 19.0754H94.5124C94.6489 20.8965 94.74 22.3078 94.74 23.3549V29.8196H91.189V14.9326H96.561L99.6568 25.4946H99.7479L102.798 14.9326H108.17V29.8196H104.483V23.3094C104.483 22.9907 104.483 22.581 104.483 22.1712C104.483 21.7615 104.528 20.7599 104.619 19.121H104.528L101.523 29.8196H97.6537Z" fill="#187FBB"/>
<path d="M121.737 23.9923C121.737 25.8589 121.236 27.3612 120.235 28.4083C119.233 29.4554 117.776 30.0017 115.955 30.0017C114.225 30.0017 112.814 29.4554 111.767 28.3628C110.72 27.2702 110.219 25.8133 110.219 23.9923C110.219 22.1257 110.72 20.6689 111.721 19.6218C112.723 18.5747 114.18 18.0739 116.001 18.0739C117.139 18.0739 118.14 18.3015 119.005 18.8023C119.87 19.3031 120.553 19.986 121.009 20.8965C121.464 21.7615 121.737 22.8086 121.737 23.9923ZM114.225 23.9923C114.225 24.9939 114.362 25.7223 114.635 26.2686C114.908 26.8149 115.363 27.0425 115.955 27.0425C116.593 27.0425 117.002 26.7694 117.275 26.2686C117.549 25.7678 117.64 24.9939 117.64 23.9923C117.64 22.9907 117.503 22.2623 117.23 21.7615C116.957 21.2607 116.547 20.9876 115.91 20.9876C115.318 20.9876 114.863 21.2152 114.589 21.716C114.316 22.2168 114.225 23.0362 114.225 23.9923Z" fill="#187FBB"/>
<path d="M130.842 29.8196V23.537C130.842 22.7631 130.751 22.1712 130.524 21.807C130.296 21.3973 129.932 21.2152 129.477 21.2152C128.794 21.2152 128.338 21.4884 128.02 22.0347C127.701 22.581 127.564 23.4915 127.564 24.8118V29.8652H123.558V18.3015H126.563L127.064 19.7128H127.291C127.61 19.1665 128.111 18.7568 128.703 18.4836C129.294 18.2105 129.977 18.0739 130.797 18.0739C132.072 18.0739 133.073 18.4381 133.756 19.1665C134.439 19.8949 134.803 20.942 134.803 22.3078V29.8196H130.842Z" fill="#187FBB"/>
<path d="M142.725 30.0017C140.812 30.0017 139.31 29.5009 138.263 28.4538C137.216 27.4523 136.67 25.9954 136.67 24.0833C136.67 22.1257 137.17 20.6233 138.126 19.5762C139.128 18.5291 140.539 18.0284 142.36 18.0284C144.09 18.0284 145.456 18.4836 146.412 19.3941C147.368 20.3047 147.823 21.6249 147.823 23.3094V25.0849H140.721C140.767 25.7223 140.995 26.2231 141.45 26.5873C141.905 26.9515 142.497 27.1336 143.271 27.1336C143.954 27.1336 144.637 27.0881 145.183 26.9515C145.775 26.8149 146.412 26.5873 147.095 26.2686V29.1367C146.458 29.4554 145.82 29.6831 145.137 29.8196C144.455 29.9562 143.635 30.0017 142.725 30.0017ZM142.497 20.7599C142.042 20.7599 141.632 20.8965 141.313 21.2152C140.995 21.4883 140.812 21.9891 140.767 22.6265H144.181C144.181 22.0802 143.999 21.6249 143.726 21.3062C143.407 20.942 142.998 20.7599 142.497 20.7599Z" fill="#187FBB"/>
<path d="M148.233 18.256H152.422L154.379 24.8573C154.47 25.2215 154.561 25.6312 154.561 26.132H154.652C154.698 25.6768 154.789 25.267 154.88 24.9028L156.883 18.256H160.935L156.382 30.5481C155.791 32.0959 155.062 33.2341 154.243 33.8715C153.378 34.5088 152.285 34.8275 150.919 34.8275C150.373 34.8275 149.827 34.782 149.28 34.6454V31.5041C149.645 31.5952 150.054 31.6407 150.51 31.6407C150.874 31.6407 151.192 31.5952 151.42 31.4586C151.693 31.322 151.921 31.1399 152.103 30.8667C152.285 30.5936 152.513 30.2294 152.74 29.6375L148.233 18.256Z" fill="#187FBB"/>
<path d="M174.821 14.8871V23.8557C174.821 25.8133 174.274 27.3157 173.182 28.3628C172.089 29.4554 170.496 29.9562 168.401 29.9562C166.353 29.9562 164.805 29.4554 163.712 28.4083C162.62 27.3612 162.073 25.8589 162.073 23.9468V14.8871H166.125V23.6281C166.125 24.6752 166.307 25.4491 166.717 25.9044C167.127 26.3597 167.673 26.6328 168.447 26.6328C169.266 26.6328 169.858 26.4052 170.222 25.9044C170.587 25.4036 170.769 24.6752 170.769 23.5826V14.8415H174.821V14.8871Z" fill="#187FBB"/>
<path d="M184.609 29.8196V23.537C184.609 22.7631 184.518 22.1712 184.29 21.807C184.062 21.3973 183.698 21.2152 183.243 21.2152C182.56 21.2152 182.105 21.4884 181.786 22.0347C181.467 22.581 181.331 23.4915 181.331 24.8118V29.8652H177.324V18.3015H180.329L180.83 19.7128H181.058C181.376 19.1665 181.877 18.7568 182.469 18.4836C183.061 18.2105 183.744 18.0739 184.563 18.0739C185.838 18.0739 186.839 18.4381 187.522 19.1665C188.205 19.8949 188.569 20.942 188.569 22.3078V29.8196H184.609Z" fill="#187FBB"/>
<path d="M196.127 30.0017C194.26 30.0017 192.803 29.5009 191.847 28.4538C190.891 27.4523 190.391 25.9499 190.391 24.0833C190.391 22.1712 190.937 20.6689 191.984 19.6218C193.031 18.5747 194.533 18.0284 196.491 18.0284C197.811 18.0284 199.086 18.3015 200.27 18.8933L199.086 21.8525C198.585 21.6249 198.175 21.4883 197.766 21.3518C197.356 21.2152 196.946 21.1697 196.491 21.1697C195.854 21.1697 195.353 21.4428 194.989 21.9436C194.624 22.4444 194.442 23.1728 194.442 24.0833C194.442 25.9499 195.125 26.8604 196.491 26.8604C197.675 26.8604 198.767 26.5418 199.86 25.8589V29.0457C198.813 29.6831 197.584 30.0017 196.127 30.0017Z" fill="#187FBB"/>
<path d="M205.687 29.8196H201.681V13.9765H205.687V29.8196Z" fill="#187FBB"/>
<path d="M213.609 30.0017C211.697 30.0017 210.194 29.5009 209.147 28.4538C208.1 27.4523 207.554 25.9954 207.554 24.0833C207.554 22.1257 208.055 20.6233 209.011 19.5762C210.012 18.5291 211.424 18.0284 213.245 18.0284C214.975 18.0284 216.34 18.4836 217.296 19.3941C218.252 20.3047 218.708 21.6249 218.708 23.3094V25.0849H211.606C211.651 25.7223 211.879 26.2231 212.334 26.5873C212.789 26.9515 213.381 27.1336 214.155 27.1336C214.838 27.1336 215.521 27.0881 216.067 26.9515C216.659 26.8149 217.296 26.5873 217.979 26.2686V29.1367C217.342 29.4554 216.705 29.6831 216.022 29.8196C215.339 29.9562 214.519 30.0017 213.609 30.0017ZM213.381 20.7599C212.926 20.7599 212.516 20.8965 212.198 21.2152C211.879 21.4883 211.697 21.9891 211.651 22.6265H215.066C215.066 22.0802 214.884 21.6249 214.61 21.3062C214.292 20.942 213.882 20.7599 213.381 20.7599Z" fill="#187FBB"/>
</svg>
