<?xml version="1.0" standalone="no"?>
<!DOCTYPE svg PUBLIC "-//W3C//DTD SVG 20010904//EN"
 "http://www.w3.org/TR/2001/REC-SVG-20010904/DTD/svg10.dtd">
<svg version="1.0" xmlns="http://www.w3.org/2000/svg"
 width="480.000000pt" height="480.000000pt" viewBox="0 0 480.000000 480.000000"
 preserveAspectRatio="xMidYMid meet">

<g transform="translate(0.000000,480.000000) scale(0.100000,-0.100000)"
fill="#000000" stroke="none">
<path d="M2280 4413 c-12 -43 -26 -81 -29 -86 -4 -4 -24 29 -43 73 -34 74 -39
80 -66 80 -28 0 -31 -4 -41 -50 -6 -27 -14 -68 -17 -90 -4 -22 -9 -40 -13 -40
-3 0 -24 33 -46 73 -38 68 -43 72 -74 70 -18 0 -35 -4 -38 -7 -3 -3 19 -45 50
-93 30 -49 61 -101 68 -116 12 -26 17 -28 47 -23 19 3 36 7 38 9 3 2 9 33 15
68 18 100 23 102 62 16 36 -77 36 -77 69 -70 18 3 33 6 34 7 0 1 19 58 41 129
l41 127 -38 0 -37 0 -23 -77z"/>
<path d="M2438 4363 c-3 -71 -5 -129 -4 -129 0 -1 47 -5 104 -9 l102 -7 0 26
c0 22 -5 26 -29 26 -64 0 -91 11 -91 37 0 25 1 25 64 21 61 -4 65 -3 69 19 5
26 -7 31 -83 35 -41 3 -45 5 -45 28 0 25 1 25 73 22 71 -4 72 -4 72 21 0 22
-5 25 -52 31 -29 3 -81 6 -114 6 l-61 0 -5 -127z"/>
<path d="M2726 4353 c-10 -60 -18 -116 -19 -127 -2 -16 12 -21 88 -37 99 -21
115 -19 115 10 0 17 -11 22 -60 33 -60 12 -71 24 -51 56 7 11 18 11 67 -2 45
-12 60 -12 66 -3 14 22 8 35 -19 41 -102 25 -104 26 -97 49 3 12 8 23 9 25 2
2 31 -4 65 -13 52 -13 65 -14 71 -3 18 28 6 37 -80 57 -143 34 -134 39 -155
-86z"/>
<path d="M1642 4361 c-46 -16 -86 -32 -89 -35 -6 -5 14 -58 73 -193 l23 -51
78 30 c43 16 93 41 111 54 86 66 79 171 -15 210 -48 21 -89 17 -181 -15z m150
-48 c27 -32 30 -68 6 -98 -17 -22 -72 -55 -92 -55 -5 0 -56 131 -56 143 0 28
119 36 142 10z"/>
<path d="M3201 4323 c-14 -27 -91 -214 -91 -222 0 -9 61 -31 71 -26 4 3 13 21
19 40 17 52 35 43 54 -28 15 -56 22 -66 52 -80 19 -10 36 -17 38 -17 2 0 -2
24 -10 53 -20 75 -19 82 16 83 68 2 92 69 43 116 -23 22 -161 98 -177 98 -3 0
-9 -8 -15 -17z m116 -87 c24 -20 25 -26 14 -40 -16 -19 -31 -20 -64 -5 -22 10
-23 14 -14 40 14 35 27 36 64 5z"/>
<path d="M1385 4247 l-40 -23 4 -74 c1 -41 5 -78 8 -82 9 -16 -13 -7 -79 33
l-67 41 -35 -21 c-59 -37 -59 -37 2 -156 32 -61 62 -110 67 -110 6 0 20 7 33
16 l23 16 -36 78 c-19 43 -33 80 -30 83 2 3 40 -18 84 -46 99 -63 113 -58 101
33 -11 81 -12 125 -2 125 5 0 30 -29 57 -65 27 -36 53 -65 58 -65 7 0 47 18
56 26 6 6 -147 214 -157 214 -4 0 -25 -11 -47 -23z"/>
<path d="M3570 4051 c-47 -21 -107 -50 -134 -66 l-48 -28 31 -20 c27 -16 36
-18 60 -7 27 11 33 9 85 -30 48 -36 56 -47 56 -74 0 -29 33 -76 52 -76 3 0 16
66 29 147 l22 146 -27 24 c-15 12 -30 23 -34 22 -4 0 -45 -17 -92 -38z m70
-83 c0 -54 -11 -60 -50 -28 l-34 28 34 15 c49 21 50 21 50 -15z"/>
<path d="M1960 4060 c-102 -25 -288 -101 -383 -156 -402 -232 -689 -599 -797
-1017 -43 -167 -54 -255 -53 -437 0 -377 109 -706 332 -1000 47 -62 250 -270
264 -270 6 0 17 -8 26 -18 63 -72 349 -232 515 -287 139 -47 207 -55 413 -50
l188 5 11 26 c8 20 13 23 19 14 7 -11 10 -9 16 6 6 16 8 16 8 2 1 -9 6 -29 13
-43 9 -21 18 -25 53 -25 l41 0 -27 152 c-15 84 -26 155 -24 159 3 3 40 16 84
29 44 12 78 26 76 30 -3 5 -46 -5 -96 -20 -88 -28 -93 -28 -131 -13 -46 18
-46 28 0 11 21 -8 35 -9 41 -3 13 13 3 26 -34 45 -27 14 -31 23 -37 75 -4 32
-12 63 -18 69 -5 5 -10 29 -10 52 0 33 4 43 19 47 17 4 22 -8 44 -122 31 -156
34 -121 4 50 -22 123 -23 126 -45 118 -20 -8 -22 -5 -22 23 0 44 -37 162 -76
243 -19 39 -28 61 -20 50 9 -11 21 -28 28 -38 13 -18 15 -18 38 2 18 15 21 20
10 21 -9 0 -21 -5 -28 -12 -9 -9 -13 -7 -18 7 -5 11 -3 20 4 23 17 5 15 22 -3
22 -13 0 -14 4 -4 22 8 14 14 18 17 10 6 -19 29 -15 69 13 39 26 55 26 33 0
-27 -32 43 0 74 34 26 29 42 26 22 -4 -18 -28 -10 -33 20 -10 26 20 29 19 32
-12 3 -35 20 -88 43 -134 18 -36 18 -37 -2 -55 -19 -17 -20 -17 -35 4 -19 28
-68 29 -109 2 -16 -11 -38 -20 -47 -20 -28 0 -22 -39 7 -50 14 -5 30 -8 37 -6
34 11 78 15 74 7 -3 -5 1 -11 9 -14 8 -4 21 -31 30 -62 l16 -55 45 0 c32 0 44
-4 44 -15 0 -11 -11 -15 -40 -15 -50 0 -53 -18 -3 -22 49 -4 57 -28 9 -28 -44
0 -48 -18 -4 -22 43 -4 48 -26 6 -30 -18 -2 -33 -7 -33 -13 0 -5 15 -11 33
-13 39 -4 38 -25 -1 -30 -37 -4 -34 -22 3 -22 20 0 30 -5 30 -15 0 -9 -10 -15
-26 -15 -20 0 -25 -4 -20 -16 3 -9 6 -20 6 -25 0 -6 5 -7 10 -4 6 4 8 11 5 16
-4 5 1 9 9 9 18 0 22 -25 6 -35 -8 -5 -7 -11 1 -21 9 -11 9 -17 -1 -29 -9 -11
-7 -42 10 -145 12 -72 20 -140 17 -151 -7 -25 5 -24 99 7 328 110 599 298 808
559 98 122 126 165 180 272 130 256 182 500 173 808 -5 200 -24 314 -81 489
-156 476 -579 886 -1077 1044 -110 35 -215 52 -188 30 13 -10 14 -17 5 -33 -6
-11 -17 -24 -24 -28 -9 -6 1 -24 39 -65 159 -174 156 -425 -7 -601 l-54 -59
73 -55 c80 -60 157 -145 149 -165 -2 -8 -30 13 -72 56 -37 39 -93 87 -124 107
l-56 38 -59 -29 c-54 -27 -67 -29 -162 -28 -79 1 -118 6 -163 22 -72 26 -84
36 -66 57 11 13 8 15 -16 16 -27 2 -27 2 5 8 50 9 53 32 4 24 -94 -15 -215
-74 -259 -126 l-19 -22 26 23 c14 12 29 22 34 22 16 0 -40 -52 -75 -68 -21
-11 -36 -26 -40 -42 -3 -14 -11 -25 -17 -25 -6 0 -15 -4 -20 -9 -5 -5 -3 -6 5
-2 18 11 15 -9 -5 -25 -15 -12 -16 -12 -9 1 8 13 7 13 -7 0 -19 -19 -97 -196
-97 -222 0 -27 -47 -164 -66 -193 -9 -14 -22 -21 -30 -18 -8 3 -12 8 -9 13 2
4 7 39 10 78 4 68 17 110 40 142 6 8 17 33 24 55 41 121 114 231 211 318 97
87 248 147 378 149 59 0 256 47 289 68 17 11 17 11 -2 5 -11 -4 -92 -11 -180
-15 -165 -8 -218 -20 -276 -61 -37 -26 -46 -20 -83 56 -37 75 -33 87 34 104
64 16 171 4 267 -30 32 -11 92 -22 133 -24 l75 -4 -60 9 c-42 7 -102 31 -202
81 -131 67 -147 72 -218 77 l-78 5 6 58 c7 77 48 157 120 235 45 49 57 68 52
84 -3 11 -11 20 -17 20 -5 0 -8 7 -4 15 7 21 -38 19 -134 -5z m110 -779 c-42
-22 -88 -37 -77 -25 9 10 86 42 102 43 6 0 -6 -8 -25 -18z m613 -95 l29 -23
-34 -20 c-53 -31 -64 -32 -94 -12 -16 10 -23 19 -16 19 8 0 29 7 48 16 28 13
37 14 49 4 9 -7 17 -11 19 -9 3 2 -16 18 -40 34 -24 17 -44 34 -44 38 0 10 43
-15 83 -47z m-138 -26 c3 -5 1 -10 -4 -10 -6 0 -11 5 -11 10 0 6 2 10 4 10 3
0 8 -4 11 -10z m-103 -35 c17 -20 17 -20 32 0 14 20 15 20 41 -5 19 -18 28
-21 34 -12 9 15 41 -48 41 -81 -1 -20 -2 -20 -11 -4 -8 14 -24 17 -97 16 -64
-1 -78 -3 -55 -9 18 -4 39 -13 47 -19 8 -6 38 -14 67 -18 64 -7 79 -17 78 -52
0 -14 -3 -20 -6 -13 -8 20 -50 15 -56 -8 -4 -16 2 -20 39 -26 29 -4 48 -13 55
-25 10 -20 9 -21 -30 -23 -17 -1 -25 -8 -27 -23 -3 -19 1 -23 25 -23 42 0 61
-10 61 -31 0 -16 -8 -19 -47 -20 -52 0 -84 -10 -85 -23 0 -18 29 -26 89 -26
51 0 64 -3 73 -19 16 -30 14 -31 -52 -31 -35 0 -70 -5 -78 -10 -29 -20 17 -40
91 -40 65 0 79 -7 79 -39 0 -5 -50 -11 -110 -13 -61 -3 -113 -8 -116 -10 -2
-3 0 -16 5 -29 l9 -24 105 9 c115 10 137 6 137 -22 0 -17 -11 -20 -100 -26
-128 -9 -131 -10 -119 -45 9 -27 12 -27 57 -20 26 4 79 8 118 8 58 1 73 -2 78
-15 4 -9 5 -19 2 -21 -4 -4 -172 -22 -213 -23 -20 0 -20 -2 -10 -31 12 -30 14
-31 57 -25 25 4 77 9 117 13 l72 6 11 -29 c7 -16 13 -51 16 -79 4 -51 1 -52
-10 -2 -11 49 -33 32 -39 -32 -2 -32 -12 -71 -21 -87 -15 -29 -15 -28 -10 31
5 60 -9 109 -31 106 -5 0 -10 -28 -11 -61 -3 -72 -37 -180 -64 -205 -25 -22
-25 -22 1 49 26 75 34 143 20 179 -19 50 -38 33 -45 -43 -7 -82 -35 -172 -55
-178 -10 -3 -12 0 -7 13 4 10 12 48 18 85 13 76 3 133 -25 138 -14 3 -17 -5
-17 -48 0 -81 -28 -188 -52 -201 -19 -10 -20 -9 -14 12 35 117 30 211 -10 217
-20 3 -22 -3 -27 -85 -6 -102 -11 -119 -39 -126 -17 -5 -19 -2 -14 19 24 95
13 174 -24 174 -14 0 -18 -12 -22 -72 -6 -84 -20 -117 -82 -184 -38 -40 -46
-45 -52 -31 -3 10 -5 19 -3 20 51 34 84 67 96 94 17 41 7 58 -14 26 -16 -24
-33 -30 -33 -12 0 6 9 24 20 40 19 26 20 30 5 58 -19 37 -19 51 -1 51 12 0 13
6 4 31 -6 19 -7 34 -1 40 5 5 68 21 140 36 127 25 131 27 123 49 -5 12 -6 25
-2 29 9 9 -80 -2 -197 -26 -51 -10 -95 -19 -97 -19 -2 0 -4 11 -4 24 0 21 7
25 70 40 38 8 99 20 134 27 63 11 65 12 63 40 -2 29 -2 29 -52 23 -27 -4 -92
-15 -144 -25 -51 -11 -95 -19 -97 -19 -2 0 -4 11 -4 24 0 15 7 27 18 30 36 11
172 36 194 36 35 0 51 15 43 39 -8 27 -30 27 -172 -2 -83 -17 -113 -20 -113
-11 0 7 -3 19 -6 27 -4 11 12 19 73 32 l78 18 -45 14 c-26 8 -64 11 -88 8 -31
-3 -48 -1 -59 11 -14 13 -14 17 0 32 13 15 13 20 2 36 -8 10 -20 16 -28 13
-11 -4 -13 0 -10 14 3 11 0 19 -7 19 -10 0 -9 5 3 18 13 14 13 20 3 35 -7 9
-21 17 -30 17 -21 0 -20 22 4 70 l20 40 -20 0 c-17 0 -21 5 -18 27 2 20 12 29
43 40 21 7 48 22 60 32 11 10 27 21 35 24 14 5 -43 1 -121 -8 -34 -5 -37 -3
-43 26 -9 45 -7 79 3 79 5 0 11 -7 15 -15 3 -8 15 -15 26 -15 15 0 20 7 20 25
0 31 25 33 56 4 25 -23 44 -18 44 12 0 25 25 24 44 -2 16 -24 46 -20 46 6 0
22 27 19 40 -5 15 -28 40 -25 40 5 0 19 4 23 18 18 9 -4 25 -16 34 -28z m-355
19 c-3 -3 -12 -4 -19 -1 -8 3 -5 6 6 6 11 1 17 -2 13 -5z m737 -103 c-6 -7
-103 90 -104 104 0 5 25 -15 55 -45 30 -29 52 -56 49 -59z m-846 73 c-4 -3 -2
-18 2 -34 7 -26 5 -31 -23 -48 -31 -17 -32 -20 -33 -88 0 -38 -4 -80 -7 -94
-4 -14 -3 -31 2 -39 8 -13 12 -13 27 0 16 13 17 12 10 -16 -15 -61 -13 -80 10
-79 19 0 21 -3 13 -30 -5 -17 -9 -42 -9 -55 0 -20 4 -23 25 -19 14 3 25 4 25
3 0 -2 -6 -17 -14 -35 -18 -43 -10 -73 16 -66 18 4 19 1 13 -27 -14 -61 -12
-72 13 -71 21 1 23 -3 17 -25 -20 -81 -18 -88 18 -82 5 1 7 -22 5 -51 -3 -49
-1 -53 19 -52 16 0 20 -3 13 -11 -5 -7 -7 -16 -2 -21 4 -5 -8 4 -25 20 -18 16
-30 33 -27 37 3 5 -2 6 -10 3 -11 -4 -19 2 -26 20 -11 30 -27 33 -45 10 -11
-15 -12 -15 -10 2 1 10 7 29 13 41 19 35 14 62 -12 74 -14 7 -22 17 -19 25 3
8 8 12 12 10 4 -3 5 11 3 30 -5 37 -13 42 -32 19 -20 -24 -21 -14 -5 40 18 57
5 85 -22 50 l-15 -20 5 20 c23 81 19 127 -8 105 -11 -10 -13 -6 -8 17 13 59 9
78 -14 78 -28 0 -38 11 -24 28 6 8 14 50 17 93 4 43 11 84 16 91 5 7 7 17 3
22 -7 13 22 71 35 71 6 0 10 5 10 12 0 15 30 48 43 48 6 0 8 -3 5 -6z m761
-74 c24 12 61 13 61 1 0 -5 -15 -18 -34 -29 l-34 -20 -38 41 c-38 39 -38 40
-7 18 26 -17 37 -20 52 -11z m94 -110 c4 -17 9 -19 31 -10 14 5 33 7 42 3 13
-5 6 -12 -27 -29 -24 -13 -49 -23 -54 -24 -10 0 -45 50 -45 63 0 5 18 12 41
16 4 0 9 -8 12 -19z m160 -59 c27 -48 35 -74 18 -55 -20 21 -62 104 -54 104 6
0 22 -22 36 -49z m-124 -48 c-13 -15 -11 -16 18 -10 18 4 33 2 35 -4 2 -6 12
-7 28 -1 21 8 28 4 52 -26 16 -19 28 -38 28 -41 0 -3 -21 -15 -46 -25 -56 -23
-66 -18 -112 49 -25 37 -30 51 -21 61 6 8 16 14 21 14 6 0 4 -8 -3 -17z m171
-113 c0 -5 -14 -17 -31 -26 -26 -13 -33 -14 -40 -2 -6 9 -1 17 19 25 33 15 52
16 52 3z m1 -161 c-30 -10 -56 -17 -58 -15 -5 5 77 34 97 34 8 1 -9 -8 -39
-19z m-29 -89 c3 -17 1 -33 -4 -36 -4 -3 -8 11 -8 30 0 44 6 47 12 6z m-1421
-81 c3 -41 13 -88 22 -106 19 -35 8 -52 -15 -25 -28 31 -58 177 -43 202 16 27
30 -1 36 -71z m1595 30 c19 -11 34 -25 34 -30 0 -5 6 -9 14 -9 19 0 40 -26 26
-35 -6 -3 -7 -18 -3 -33 l6 -27 -38 34 c-46 40 -102 66 -175 82 -42 9 -50 13
-37 21 10 5 21 7 25 4 4 -2 14 -1 22 5 26 16 91 10 126 -12z m-1222 -44 c-4
-8 -8 -15 -10 -15 -2 0 -4 7 -4 15 0 8 4 15 10 15 5 0 7 -7 4 -15z m1218 -77
c51 -52 58 -57 44 -29 -23 44 -16 48 20 10 28 -29 29 -34 27 -116 -1 -57 -5
-88 -14 -93 -15 -10 41 -70 65 -70 20 0 20 -4 0 -71 -16 -53 -61 -128 -77
-129 -5 0 -23 -15 -40 -32 -20 -22 -32 -29 -35 -20 -3 10 -9 9 -26 -5 l-21
-18 19 22 c10 13 23 20 29 16 5 -3 7 -2 4 4 -3 5 3 38 13 72 11 35 20 75 19
89 -1 19 -5 12 -14 -23 -7 -27 -19 -66 -28 -87 -15 -36 -70 -86 -90 -80 -5 2
-19 -6 -31 -17 -11 -11 -41 -25 -66 -32 -68 -18 -123 1 -182 61 -47 48 -98
135 -98 165 0 27 16 16 29 -22 22 -61 78 -142 113 -163 44 -27 107 -26 143 2
l27 21 -6 -21 c-10 -29 8 -28 31 1 14 18 19 45 21 118 2 51 8 96 13 100 19 11
-29 184 -72 257 -24 41 -24 48 -1 32 9 -7 1 2 -18 21 -20 19 -31 31 -26 27 21
-16 28 -7 11 12 -23 26 -16 33 34 33 49 0 82 -21 121 -75 17 -22 30 -37 30
-32 0 5 -18 34 -40 64 -29 39 -36 56 -27 62 24 15 38 7 99 -54z m-1545 -101
c4 -6 1 -13 -6 -15 -6 -2 -25 -15 -41 -29 l-30 -25 0 44 c0 25 3 47 6 51 8 7
62 -12 71 -26z m284 14 c24 -20 24 -20 2 -14 -12 3 -28 11 -34 19 -17 21 5 17
32 -5z m-219 -7 c19 -10 33 -12 37 -6 3 6 15 6 29 1 31 -12 28 -23 -5 -14
l-28 6 33 -33 c23 -23 35 -29 40 -21 15 23 44 -16 81 -110 13 -31 27 -60 32
-63 10 -6 -21 77 -51 136 -22 43 -25 60 -10 60 9 0 34 -31 77 -96 11 -16 3 9
-24 74 -13 31 10 7 38 -40 16 -29 27 -42 24 -28 -4 14 -14 35 -22 48 -25 40
-11 52 59 52 41 0 71 -5 86 -15 49 -35 102 -159 123 -292 7 -43 14 -79 15 -81
1 -2 21 9 43 24 23 15 43 25 45 23 2 -2 11 -19 20 -36 13 -26 13 -31 2 -27 -7
3 -16 -2 -19 -10 -4 -9 -18 -16 -32 -16 -22 0 -24 -3 -15 -19 5 -11 10 -23 10
-28 -1 -4 -12 12 -25 37 -27 52 -31 46 -39 -57 -7 -97 -15 -110 -86 -130 -56
-15 -58 -17 -40 -30 32 -22 23 -39 -26 -50 -44 -10 -45 -10 -39 11 20 65 24
99 23 176 l-1 85 -6 -97 c-4 -57 -11 -102 -19 -110 -9 -9 -12 -7 -13 13 -1 21
-2 20 -10 -8 -5 -18 -14 -33 -20 -33 -6 0 -8 -8 -4 -18 3 -11 -3 -30 -16 -45
-28 -37 -41 -34 -21 6 13 25 18 66 20 183 l4 151 -66 111 c-69 116 -187 267
-231 296 -14 9 -23 21 -20 26 8 13 11 13 47 -6z m119 -1 c13 -17 13 -17 -6 -3
-11 8 -22 16 -24 17 -2 2 0 3 6 3 6 0 17 -8 24 -17z m1579 -71 c16 3 30 1 30
-4 0 -4 -19 -8 -43 -8 -32 0 -44 4 -44 15 0 11 4 12 14 4 7 -6 26 -9 43 -7z
m-1732 -6 c64 -34 204 -201 258 -308 32 -64 34 -72 34 -175 0 -105 -16 -189
-41 -219 -8 -10 -36 -14 -89 -14 -86 0 -94 5 -157 93 l-33 45 25 16 c13 9 43
41 66 71 l41 55 -22 143 c-16 104 -29 154 -47 185 -34 59 -83 113 -96 105 -6
-3 -7 -1 -3 5 10 16 31 15 64 -2z m1697 -46 c3 -5 1 -10 -4 -10 -6 0 -11 5
-11 10 0 6 2 10 4 10 3 0 8 -4 11 -10z m-1985 -44 c0 -3 -4 -8 -10 -11 -5 -3
-10 -1 -10 4 0 6 5 11 10 11 6 0 10 -2 10 -4z m50 -6 c0 -5 -10 -10 -22 -9
-22 0 -22 1 -3 9 11 5 21 9 23 9 1 1 2 -3 2 -9z m1910 0 c0 -5 -5 -10 -11 -10
-5 0 -7 5 -4 10 3 6 8 10 11 10 2 0 4 -4 4 -10z m-480 -57 c6 -27 19 -56 27
-65 17 -20 58 -24 68 -8 12 19 35 10 35 -13 0 -52 -50 -62 -101 -20 -41 35
-83 122 -67 140 18 22 25 15 38 -34z m-1430 -3 c0 -6 -23 -9 -52 -8 l-53 1 50
7 c28 4 51 8 53 8 1 1 2 -2 2 -8z m2000 0 c0 -5 -19 -9 -42 -9 l-43 2 40 7
c22 4 41 8 43 9 1 0 2 -3 2 -9z m-643 -60 c25 -58 12 -58 -17 0 -22 43 -24 50
-12 50 4 0 18 -23 29 -50z m-367 -10 c0 -5 -5 -10 -11 -10 -5 0 -7 5 -4 10 3
6 8 10 11 10 2 0 4 -4 4 -10z m-990 -30 c0 -5 -10 -10 -22 -10 -19 0 -20 2 -8
10 19 13 30 13 30 0z m1945 -1 c4 -5 -5 -9 -19 -9 -14 0 -26 4 -26 8 0 11 39
12 45 1z m-384 -47 c-6 -11 -18 -22 -26 -26 -12 -4 -10 2 7 23 26 32 35 33 19
3z m-1584 -18 c-3 -3 -12 -4 -19 -1 -8 3 -5 6 6 6 11 1 17 -2 13 -5z m1853
-39 c0 -8 -7 -15 -16 -15 -14 0 -14 3 -4 15 7 8 14 15 16 15 2 0 4 -7 4 -15z
m150 11 c0 -2 -18 -6 -40 -8 -22 -2 -40 0 -40 4 0 5 18 8 40 8 22 0 40 -2 40
-4z m-1813 -38 c-3 -8 -6 -5 -6 6 -1 11 2 17 5 13 3 -3 4 -12 1 -19z m789 -46
c-9 -8 -14 0 -21 33 l-6 30 16 -28 c9 -16 14 -31 11 -35z m832 27 c59 -4 52
-19 -8 -19 -39 0 -50 4 -50 16 0 8 4 13 8 10 5 -3 27 -6 50 -7z m157 -10 c4
-5 -5 -9 -19 -9 -14 0 -26 4 -26 8 0 11 39 12 45 1z m50 1 c-3 -5 -12 -10 -18
-10 -7 0 -6 4 3 10 19 12 23 12 15 0z m-1997 -52 c-2 -6 -11 -13 -19 -16 -12
-3 -12 -2 0 7 11 7 5 11 -25 14 l-39 4 43 1 c30 1 42 -2 40 -10z m1670 -6 c2
-8 -12 -12 -52 -12 -52 0 -66 7 -49 24 12 12 96 2 101 -12z m162 3 c0 -11 -12
-15 -50 -15 -38 0 -50 4 -50 15 0 11 12 15 50 15 38 0 50 -4 50 -15z m80 5 c0
-5 -5 -10 -11 -10 -5 0 -7 5 -4 10 3 6 8 10 11 10 2 0 4 -4 4 -10z m-982 -12
c7 -7 12 -16 12 -22 0 -6 -5 -5 -12 2 -8 8 -15 9 -25 1 -10 -9 -13 -8 -13 3 0
28 18 36 38 16z m363 -18 c37 3 39 2 29 -26 -7 -18 -7 -31 1 -40 16 -20 3 -32
-33 -31 l-33 1 -1 59 c-1 33 2 54 6 48 4 -7 18 -12 31 -11z m-294 -64 c7 -59
-11 -81 -67 -84 -29 -2 -40 1 -40 12 0 20 70 27 71 6 0 -9 4 -6 10 8 5 14 5
39 0 65 -6 22 -7 45 -4 50 10 17 25 -11 30 -57z m963 50 c0 -2 -13 -6 -30 -8
-16 -3 -30 -1 -30 4 0 4 14 8 30 8 17 0 30 -2 30 -4z m-1960 -16 c0 -6 -11 -8
-27 -4 -40 10 -41 14 -5 14 18 0 32 -5 32 -10z m958 -45 c0 -16 -2 -15 -8 5
-11 34 -11 60 0 35 5 -11 8 -29 8 -40z m712 45 c0 -5 -25 -10 -55 -10 -30 0
-55 5 -55 10 0 6 25 10 55 10 30 0 55 -4 55 -10z m160 0 c0 -5 -22 -10 -50
-10 -27 0 -50 5 -50 10 0 6 23 10 50 10 28 0 50 -4 50 -10z m-890 -34 c0 -3
-4 -8 -10 -11 -5 -3 -10 -1 -10 4 0 6 5 11 10 11 6 0 10 -2 10 -4z m710 -5
c11 0 20 -5 20 -11 0 -5 -25 -10 -55 -10 -48 0 -65 7 -51 21 4 4 30 4 86 0z
m-1495 -11 c4 -6 -12 -10 -39 -10 -25 0 -46 4 -46 8 0 12 78 14 85 2z m1675
-2 c0 -4 -22 -8 -50 -8 -28 0 -50 5 -50 10 0 7 20 10 50 9 28 -2 50 -6 50 -11z
m163 0 c-2 -5 -24 -8 -48 -8 -24 0 -46 3 -48 8 -3 4 19 7 48 7 29 0 51 -3 48
-7z m-2000 -5 c-7 -2 -19 -2 -25 0 -7 3 -2 5 12 5 14 0 19 -2 13 -5z m7 -41
c0 -4 -18 -6 -40 -4 -22 2 -40 6 -40 8 0 2 18 4 40 4 22 0 40 -3 40 -8z m170
-1 c0 -17 -20 -23 -35 -11 -9 7 -26 9 -46 5 -22 -5 -29 -4 -25 4 9 13 106 15
106 2z m1333 -6 c-2 -5 -25 -11 -53 -13 -40 -2 -50 0 -50 13 0 13 10 15 53 13
28 -2 51 -7 50 -13z m167 5 c0 -5 -25 -10 -55 -10 -30 0 -55 5 -55 10 0 6 25
10 55 10 30 0 55 -4 55 -10z m160 0 c0 -17 -49 -23 -67 -9 -12 10 -15 10 -9 2
4 -8 1 -13 -8 -13 -9 0 -16 7 -16 15 0 11 12 15 50 15 28 0 50 -4 50 -10z
m163 3 c3 -5 -15 -6 -39 -4 -29 2 -44 -1 -44 -9 0 -6 -5 -8 -10 -5 -6 4 -8 11
-5 16 7 11 92 12 98 2z m-991 -48 c-4 -23 -9 -25 -58 -25 -41 0 -54 4 -54 15
0 11 12 15 49 15 28 0 53 5 56 10 10 16 13 12 7 -15z m-832 -13 c0 -7 -98 -8
-110 -2 -8 4 94 16 103 12 4 -2 7 -6 7 -10z m660 3 c0 -12 -13 -15 -55 -15
-51 0 -65 7 -48 23 3 4 28 7 55 7 36 0 48 -4 48 -15z m673 0 c-2 -5 -25 -11
-53 -13 -40 -2 -50 0 -50 13 0 13 10 15 53 13 28 -2 51 -7 50 -13z m165 3 c-3
-8 -23 -13 -53 -13 -30 0 -50 5 -52 13 -4 9 11 12 52 12 41 0 56 -3 53 -12z
m-998 -8 c0 -6 -23 -9 -52 -9 l-53 2 40 7 c60 11 65 11 65 0z m1160 2 c0 -5
-22 -9 -50 -11 -30 -1 -50 2 -50 9 0 5 22 10 50 10 28 0 50 -4 50 -8z m-1162
-49 c3 -9 -12 -13 -52 -13 -52 0 -66 7 -49 24 12 11 96 2 101 -11z m162 2 c0
-12 -13 -15 -55 -15 -51 0 -65 7 -48 23 3 4 28 7 55 7 36 0 48 -4 48 -15z
m168 -2 c3 -9 -12 -13 -52 -13 -44 0 -56 3 -56 16 0 12 10 14 52 12 30 -2 53
-8 56 -15z m510 0 c3 -9 -12 -13 -52 -13 -52 0 -66 7 -49 24 12 11 96 2 101
-11z m-1508 -3 c0 -5 -15 -9 -32 -9 l-33 1 30 8 c17 4 31 8 33 9 1 0 2 -3 2
-9z m170 0 c0 -5 -22 -10 -50 -10 -27 0 -50 4 -50 8 0 4 23 9 50 10 28 1 50
-2 50 -8z m144 4 c32 -12 15 -24 -34 -24 -38 0 -50 4 -50 15 0 16 52 21 84 9z
m1354 -11 c3 -9 -12 -13 -52 -13 -52 0 -66 7 -49 24 12 11 96 2 101 -11z m162
7 c0 -5 -22 -10 -50 -10 -27 0 -50 5 -50 10 0 6 23 10 50 10 28 0 50 -4 50
-10z m120 -6 c0 -2 -11 -4 -25 -4 -14 0 -25 4 -25 9 0 4 11 6 25 3 14 -2 25
-6 25 -8z m50 6 c0 -5 -10 -10 -22 -9 -22 0 -22 1 -3 9 11 5 21 9 23 9 1 1 2
-3 2 -9z m-1512 -7 c-10 -2 -28 -2 -40 0 -13 2 -5 4 17 4 22 1 32 -1 23 -4z
m-488 -41 c0 -4 -18 -6 -40 -4 -22 2 -40 6 -40 8 0 2 18 4 40 4 22 0 40 -3 40
-8z m170 -2 c0 -12 -99 -10 -106 2 -3 4 20 8 50 8 31 0 56 -5 56 -10z m158 -7
c2 -9 -11 -13 -47 -13 -54 0 -70 16 -23 23 42 7 65 3 70 -10z m170 5 c-3 -8
-23 -13 -53 -13 -30 0 -50 5 -52 13 -4 9 11 12 52 12 41 0 56 -3 53 -12z m170
0 c-3 -8 -23 -13 -53 -13 -30 0 -50 5 -52 13 -4 9 11 12 52 12 41 0 56 -3 53
-12z m162 -4 c0 -12 -10 -14 -52 -12 -74 4 -77 28 -4 28 44 0 56 -3 56 -16z
m168 4 c-3 -8 -26 -14 -56 -16 -42 -2 -52 0 -52 12 0 13 12 16 56 16 40 0 55
-4 52 -12z m510 0 c-3 -8 -23 -13 -53 -13 -30 0 -50 5 -52 13 -4 9 11 12 52
12 41 0 56 -3 53 -12z m160 -7 c2 -7 -16 -11 -52 -11 -51 0 -66 7 -50 23 10
10 98 0 102 -12z m162 9 c0 -5 -22 -10 -50 -10 -27 0 -50 5 -50 10 0 6 23 10
50 10 28 0 50 -4 50 -10z m170 3 c0 -5 -24 -8 -54 -8 -30 0 -52 3 -49 8 2 4
26 7 54 7 27 0 49 -3 49 -7z m-963 -85 c-2 -13 -4 -5 -4 17 -1 22 1 32 4 23 2
-10 2 -28 0 -40z m-872 22 c-4 -7 -89 -6 -105 1 -3 1 18 5 45 8 53 7 68 5 60
-9z m168 5 c-2 -5 -25 -11 -53 -13 -40 -2 -50 0 -50 13 0 13 10 15 53 13 28
-2 51 -7 50 -13z m167 0 c0 -11 -12 -15 -49 -15 -47 0 -68 9 -54 24 3 3 28 6
55 6 36 0 48 -4 48 -15z m168 -2 c3 -9 -12 -13 -52 -13 -44 0 -56 3 -56 16 0
12 10 14 52 12 30 -2 53 -8 56 -15z m162 2 c0 -12 -13 -15 -55 -15 -51 0 -65
7 -48 23 3 4 28 7 55 7 36 0 48 -4 48 -15z m170 0 c0 -12 -13 -15 -55 -15 -42
0 -55 3 -55 15 0 12 13 15 55 15 42 0 55 -3 55 -15z m503 0 c-2 -5 -25 -11
-53 -13 -40 -2 -50 0 -50 13 0 13 10 15 53 13 28 -2 51 -7 50 -13z m162 0 c0
-11 -69 -19 -92 -11 -8 3 -11 11 -8 16 8 14 100 9 100 -5z m165 -1 c0 -7 -20
-12 -50 -13 -35 0 -50 3 -50 12 0 10 15 13 50 13 30 -1 50 -6 50 -12z m-1662
-52 c2 -8 -12 -12 -47 -12 -28 0 -51 3 -51 8 0 4 19 6 41 4 31 -3 40 -1 34 8
-5 8 -3 11 5 8 8 -2 16 -10 18 -16z m165 3 c-2 -5 -25 -11 -53 -13 -40 -2 -50
0 -50 13 0 13 10 15 53 13 28 -2 51 -7 50 -13z m165 -2 c3 -9 -12 -13 -52 -13
-52 0 -66 7 -49 24 12 11 96 2 101 -11z m170 0 c3 -9 -12 -13 -52 -13 -44 0
-56 3 -56 16 0 12 10 14 52 12 30 -2 53 -8 56 -15z m162 2 c0 -12 -13 -15 -55
-15 -51 0 -65 7 -48 23 3 4 28 7 55 7 36 0 48 -4 48 -15z m168 -2 c3 -9 -12
-13 -52 -13 -44 0 -56 3 -56 16 0 12 10 14 52 12 30 -2 53 -8 56 -15z m510 0
c3 -9 -12 -13 -52 -13 -44 0 -56 3 -56 16 0 12 10 14 52 12 30 -2 53 -8 56
-15z m160 0 c3 -9 -12 -13 -52 -13 -52 0 -66 7 -49 24 12 11 96 2 101 -11z
m150 4 c6 0 12 -4 12 -9 0 -4 -22 -8 -50 -8 -37 0 -50 4 -50 14 0 11 9 13 38
9 20 -3 43 -5 50 -6z m-1818 -7 c0 -5 -10 -10 -22 -9 -22 0 -22 1 -3 9 11 5
21 9 23 9 1 1 2 -3 2 -9z m1950 -6 c0 -2 -11 -4 -25 -4 -14 0 -25 4 -25 9 0 4
11 6 25 3 14 -2 25 -6 25 -8z m50 6 c0 -5 -5 -10 -11 -10 -5 0 -7 5 -4 10 3 6
8 10 11 10 2 0 4 -4 4 -10z m-1005 -50 c0 -11 -14 -16 -52 -18 -41 -2 -53 0
-53 12 0 18 14 23 65 22 28 -1 40 -5 40 -16z m-995 2 c0 -4 -18 -6 -40 -4 -22
2 -40 6 -40 8 0 2 18 4 40 4 22 0 40 -3 40 -8z m170 -2 c0 -5 -22 -10 -50 -10
-27 0 -50 5 -50 10 0 6 23 10 50 10 28 0 50 -4 50 -10z m160 0 c0 -5 -22 -10
-50 -10 -27 0 -50 5 -50 10 0 6 23 10 50 10 28 0 50 -4 50 -10z m167 -2 c-5
-17 -99 -17 -105 0 -2 8 13 12 53 12 41 0 55 -3 52 -12z m171 0 c-3 -8 -23
-13 -53 -13 -30 0 -50 5 -52 13 -4 9 11 12 52 12 41 0 56 -3 53 -12z m162 -4
c0 -12 -10 -14 -52 -12 -74 4 -77 28 -4 28 44 0 56 -3 56 -16z m680 6 c0 -23
-100 -26 -108 -2 -3 8 12 12 52 12 31 0 56 -4 56 -10z m160 1 c0 -9 -80 -19
-100 -13 -29 10 -3 22 45 22 30 0 55 -4 55 -9z m160 -1 c0 -5 -22 -10 -50 -10
-27 0 -50 5 -50 10 0 6 23 10 50 10 28 0 50 -4 50 -10z m157 4 c-9 -9 -87 -10
-87 -1 0 4 21 7 47 7 25 0 44 -3 40 -6z m-958 -54 c8 0 26 -59 34 -112 3 -19
0 -25 -10 -21 -8 3 -13 -2 -14 -13 -2 -32 -16 47 -22 116 -2 36 -3 57 0 48 2
-10 8 -18 12 -18z"/>
<path d="M3246 1813 c-6 -14 -5 -15 5 -6 7 7 10 15 7 18 -3 3 -9 -2 -12 -12z"/>
<path d="M2023 1610 c0 -30 2 -43 4 -27 2 15 2 39 0 55 -2 15 -4 2 -4 -28z"/>
<path d="M3213 1643 c9 -2 23 -2 30 0 6 3 -1 5 -18 5 -16 0 -22 -2 -12 -5z"/>
<path d="M935 3921 c-73 -42 -135 -138 -135 -208 0 -37 27 -81 61 -99 56 -29
147 3 212 75 83 92 97 181 37 241 -31 31 -112 28 -175 -9z m117 -58 c27 -32
29 -55 8 -99 -40 -82 -131 -109 -173 -52 -18 24 -19 32 -9 67 17 55 72 101
121 101 24 0 44 -7 53 -17z"/>
<path d="M3808 3799 c-49 -49 -88 -93 -88 -97 0 -5 35 -43 78 -84 58 -56 89
-79 120 -88 122 -32 189 79 121 198 -20 35 -130 162 -139 161 -3 0 -44 -40
-92 -90z m143 -31 c31 -35 51 -88 44 -115 -3 -14 -20 -30 -40 -40 -41 -19 -77
-8 -121 38 l-28 29 60 54 c32 30 61 55 62 56 2 0 13 -10 23 -22z"/>
<path d="M2285 3849 c21 -69 65 -132 118 -170 l40 -29 -36 0 c-20 0 -59 5 -87
11 -28 6 -53 9 -56 7 -8 -9 90 -99 128 -119 22 -11 60 -22 86 -25 88 -10 171
55 186 144 3 21 15 50 25 64 15 19 17 28 9 36 -21 21 -65 14 -87 -15 -24 -29
-23 -30 -41 15 -23 59 -82 86 -214 98 l-78 7 7 -24z"/>
<path d="M676 3619 c-16 -12 -42 -43 -57 -68 -46 -73 -35 -161 20 -161 19 0
87 45 110 73 21 27 51 22 51 -8 0 -25 -42 -75 -62 -75 -8 0 -2 -59 8 -69 10
-11 75 55 98 101 31 61 33 108 8 131 -30 27 -66 20 -122 -24 -28 -22 -58 -38
-66 -35 -24 9 -16 43 17 69 25 19 30 30 27 56 l-3 33 -29 -23z"/>
<path d="M4065 3484 c-55 -37 -102 -68 -104 -70 -5 -4 31 -74 38 -74 8 0 212
123 217 132 6 9 -33 78 -44 78 -4 0 -52 -30 -107 -66z"/>
<path d="M4153 3345 c-47 -20 -66 -64 -61 -144 10 -164 141 -314 235 -269 82
39 83 209 4 328 -51 76 -121 110 -178 85z m121 -104 c29 -25 56 -91 56 -138 0
-75 -58 -106 -114 -62 -54 43 -82 140 -55 190 21 40 73 45 113 10z"/>
<path d="M675 3253 c-44 -6 -197 -33 -216 -39 -18 -5 -39 -45 -39 -74 0 -10
41 -74 92 -142 l92 -123 15 47 c13 44 13 49 -4 68 -19 21 -19 23 5 92 27 79
41 98 74 98 16 0 27 10 39 35 9 20 17 38 17 40 0 5 -26 5 -75 -2z m-94 -138
c-9 -25 -19 -45 -22 -45 -8 0 -37 44 -41 61 -3 12 29 26 63 28 15 1 15 -2 0
-44z"/>
<path d="M2490 1795 c-7 -8 -8 -15 -2 -15 5 0 15 7 22 15 7 8 8 15 2 15 -5 0
-15 -7 -22 -15z"/>
<path d="M2642 1059 c-23 -9 -29 -24 -13 -33 5 -4 12 -30 16 -59 10 -74 14
-78 53 -61 31 13 33 16 26 46 -4 18 -8 48 -8 67 -2 28 -7 36 -27 41 -13 4 -35
3 -47 -1z"/>
<path d="M2680 830 c-24 -8 -24 -8 5 -8 17 0 41 4 55 8 24 8 24 8 -5 8 -16 0
-41 -4 -55 -8z"/>
<path d="M1049 666 c-54 -27 -50 -63 12 -103 52 -34 59 -42 53 -57 -9 -25 -37
-28 -64 -7 -16 12 -32 16 -40 11 -19 -12 32 -60 65 -60 90 0 97 96 10 137 -22
11 -35 24 -35 36 0 17 5 19 39 13 41 -6 60 4 38 21 -21 17 -55 21 -78 9z"/>
<path d="M1303 668 c-42 -11 -83 -61 -83 -101 0 -41 33 -95 66 -107 52 -20 94
-12 130 24 85 85 5 215 -113 184z m92 -53 c36 -35 33 -76 -7 -110 -39 -33 -81
-29 -116 12 -67 75 52 170 123 98z"/>
<path d="M822 643 c-6 -16 -26 -63 -46 -105 -31 -69 -33 -78 -17 -78 10 0 23
11 29 25 10 21 19 25 52 25 33 0 42 -4 52 -24 11 -26 34 -41 42 -28 6 9 -86
212 -95 212 -4 0 -12 -12 -17 -27z m33 -73 l16 -30 -30 0 c-28 0 -29 1 -18 30
6 17 13 30 14 30 1 0 9 -13 18 -30z"/>
<path d="M1551 578 c-13 -51 -25 -99 -28 -106 -4 -9 1 -13 13 -10 13 2 22 20
33 63 l14 59 32 -69 31 -69 24 59 c13 33 26 64 30 68 4 5 14 -18 22 -50 9 -37
20 -59 30 -61 14 -3 12 11 -11 97 -14 55 -29 102 -31 105 -3 2 -19 -27 -35
-66 l-30 -70 -32 71 c-18 39 -34 71 -36 71 -2 0 -13 -42 -26 -92z"/>
<path d="M1848 664 c-5 -4 -8 -52 -8 -106 l0 -98 56 0 c48 0 59 4 85 29 44 44
37 128 -12 160 -25 15 -111 26 -121 15z m106 -45 c55 -43 23 -129 -49 -129
l-35 0 0 75 0 75 29 0 c15 0 40 -9 55 -21z"/>
<path d="M2084 646 c3 -12 23 -61 44 -107 l39 -84 34 75 35 74 29 -72 c17 -39
33 -72 36 -72 5 0 89 190 89 203 0 4 -5 7 -11 7 -5 0 -25 -33 -43 -72 l-34
-73 -34 74 -34 75 -33 -75 -34 -74 -33 73 c-32 69 -63 99 -50 48z"/>
<path d="M2477 664 c-4 -4 -7 -52 -7 -106 l0 -98 61 0 c44 0 60 3 57 13 -3 6
-23 13 -46 15 -41 3 -42 4 -42 38 0 34 0 34 46 34 59 0 55 24 -4 28 -37 3 -42
6 -42 28 0 22 4 24 46 24 32 0 44 4 42 13 -5 13 -99 23 -111 11z"/>
<path d="M2667 663 c-4 -3 -7 -51 -7 -105 l0 -98 60 0 c47 0 60 3 60 15 0 11
-12 15 -46 15 -45 0 -45 0 -42 33 3 30 6 32 46 35 28 2 42 8 42 18 0 10 -13
14 -46 14 -41 0 -45 2 -42 23 2 18 10 23 46 25 28 2 42 8 42 18 0 10 -14 14
-53 14 -30 0 -57 -3 -60 -7z"/>
<path d="M3000 567 c0 -88 3 -107 15 -107 12 0 15 15 15 72 l0 72 73 -72 c40
-39 76 -72 80 -72 4 0 6 46 5 103 -2 78 -6 102 -17 102 -10 0 -13 -17 -14 -67
0 -38 -3 -68 -6 -68 -3 0 -38 33 -78 72 l-73 72 0 -107z"/>
<path d="M3277 663 c-4 -3 -7 -51 -7 -105 0 -80 3 -98 15 -98 11 0 15 12 15
45 0 25 4 45 8 45 4 0 25 -20 45 -45 24 -28 46 -45 60 -45 18 0 15 7 -26 48
-26 26 -47 52 -47 58 0 5 18 28 40 49 22 21 40 43 40 47 0 19 -29 5 -65 -32
-21 -22 -43 -40 -47 -40 -4 0 -8 18 -8 40 0 38 -8 49 -23 33z"/>
<path d="M3542 654 c-62 -43 -65 -122 -6 -173 50 -45 104 -43 150 3 28 28 34
41 34 78 -1 68 -44 108 -117 108 -21 0 -49 -7 -61 -16z m126 -37 c49 -45 11
-137 -58 -137 -34 0 -90 46 -90 74 0 34 22 68 51 80 38 16 66 11 97 -17z"/>
<path d="M3836 576 c-25 -54 -46 -102 -46 -107 0 -19 21 -8 32 16 10 21 18 25
58 25 40 0 48 -4 58 -25 6 -14 18 -25 26 -25 11 0 5 21 -23 83 -20 45 -42 93
-48 107 -10 24 -13 19 -57 -74z m57 7 c2 -10 8 -26 12 -35 6 -15 2 -18 -24
-18 -34 0 -37 6 -19 45 13 29 24 32 31 8z"/>
<path d="M4057 663 c-4 -3 -7 -39 -7 -80 0 -58 3 -73 15 -73 12 0 15 16 15 80
0 73 -6 91 -23 73z"/>
<path d="M4055 480 c-8 -13 4 -32 16 -25 12 8 12 35 0 35 -6 0 -13 -4 -16 -10z"/>
</g>
</svg>
