<?xml version="1.0" standalone="no"?>
<!DOCTYPE svg PUBLIC "-//W3C//DTD SVG 20010904//EN"
 "http://www.w3.org/TR/2001/REC-SVG-20010904/DTD/svg10.dtd">
<svg version="1.0" xmlns="http://www.w3.org/2000/svg"
 width="480.000000pt" height="480.000000pt" viewBox="0 0 480.000000 480.000000"
 preserveAspectRatio="xMidYMid meet">

<g transform="translate(0.000000,480.000000) scale(0.100000,-0.100000)"
fill="#3A7DB6" stroke="none">
<path d="M543 4789 c-185 -31 -377 -176 -470 -355 -79 -151 -74 6 -71 -2066
l3 -1853 32 -78 c66 -165 173 -286 320 -364 148 -79 -19 -73 2043 -73 2062 0
1895 -6 2043 73 147 78 254 199 320 364 l32 78 3 1853 c3 2072 8 1915 -71
2066 -79 152 -218 272 -389 334 l-73 27 -1835 1 c-1024 1 -1858 -2 -1887 -7z
m2129 -450 c237 -31 517 -139 738 -286 400 -265 699 -712 780 -1165 56 -316
36 -665 -54 -925 -109 -313 -283 -577 -523 -792 -128 -115 -112 -111 -183 -42
-33 33 -94 81 -135 107 l-75 48 29 30 c66 69 202 253 211 286 16 60 22 172 12
232 -8 51 -7 60 10 74 15 15 18 33 18 120 0 58 -4 106 -10 109 -28 17 8 165
67 276 27 50 34 73 29 93 -6 24 -10 27 -35 21 l-28 -6 34 128 c37 144 73 345
73 407 0 23 -7 68 -15 101 -18 67 -116 267 -179 364 -142 219 -352 392 -617
507 -184 80 -228 89 -434 88 -157 0 -197 -4 -310 -28 -71 -15 -166 -42 -210
-60 -157 -63 -311 -170 -375 -259 -116 -160 -144 -204 -173 -273 -86 -203
-102 -417 -51 -701 l16 -91 56 -34 c59 -35 122 -106 122 -139 0 -14 -9 -9 -42
24 -29 28 -61 48 -97 60 -72 23 -97 22 -126 -8 -49 -48 -27 -147 67 -303 89
-146 124 -282 112 -431 -6 -74 -5 -80 14 -90 12 -6 32 -9 45 -6 35 9 49 -16
51 -91 l2 -66 -113 -56 c-62 -31 -115 -53 -118 -50 -3 3 6 53 21 110 l28 105
-17 86 c-32 163 -97 263 -202 313 -92 44 -179 26 -238 -48 -50 -63 -41 -114
86 -473 27 -76 43 -185 28 -185 -19 0 -155 216 -208 329 -107 228 -155 411
-173 669 -14 207 20 494 80 674 184 548 603 976 1144 1167 155 55 244 73 471
95 62 6 304 -3 397 -15z m410 -525 c51 -29 147 -96 164 -116 42 -45 103 -150
123 -211 31 -93 50 -205 57 -335 5 -94 13 -139 41 -227 48 -154 52 -217 19
-330 -15 -49 -26 -107 -25 -130 1 -22 -9 -85 -24 -140 -14 -55 -27 -113 -29
-130 l-3 -30 -107 -7 c-120 -7 -200 -22 -273 -49 -27 -10 -55 -19 -61 -19 -35
0 -21 148 25 262 31 77 31 104 2 66 -50 -63 -101 -203 -101 -275 l0 -33 -74 0
-73 0 -6 45 c-7 49 -90 210 -140 270 -56 68 -202 122 -302 112 -57 -6 -93 -22
-140 -61 l-30 -26 35 17 c43 21 179 30 208 14 30 -16 28 -29 -3 -23 -33 6
-122 -24 -162 -54 -43 -33 -81 -98 -88 -154 l-6 -45 26 48 c28 53 42 59 51 23
10 -41 39 -59 94 -60 56 -1 76 13 86 60 6 29 4 31 -18 27 -33 -6 -56 20 -37
43 8 9 22 14 37 11 21 -4 23 -2 18 19 -6 21 -3 24 20 24 43 0 79 -47 109 -143
14 -48 31 -87 37 -87 7 0 26 16 44 36 20 21 40 34 51 32 26 -5 45 -51 50 -122
4 -49 2 -64 -11 -75 -15 -12 -22 -12 -54 3 -76 37 -384 30 -480 -10 -34 -14
-36 -13 -81 21 -53 41 -249 202 -355 290 -40 33 -93 76 -118 95 -26 19 -49 44
-52 55 -2 11 -8 79 -11 150 -5 104 -3 146 11 210 30 142 30 156 -5 189 -38 36
-38 50 -6 99 29 42 17 49 -36 21 -49 -25 -47 -8 4 41 48 46 41 61 -13 30 -14
-8 -28 -14 -32 -15 -16 0 -7 39 17 73 23 35 24 39 10 78 -21 58 -19 165 4 214
50 112 221 183 414 172 72 -4 99 -10 150 -36 89 -44 186 -120 268 -212 143
-158 284 -206 480 -165 73 16 154 53 182 84 28 30 31 79 13 210 -18 129 -15
165 16 186 19 14 56 10 90 -10z m-1736 -1322 c107 -78 158 -178 170 -332 6
-74 -15 -213 -34 -232 -5 -5 -12 34 -16 89 -14 205 -65 357 -149 449 -39 43
-45 54 -30 54 11 0 38 -13 59 -28z m2214 -33 c0 -21 -90 -199 -101 -199 -26 0
32 181 64 202 17 11 37 10 37 -3z m-1886 -168 c49 -42 112 -96 141 -121 28
-25 104 -90 168 -145 115 -98 117 -101 117 -142 0 -30 7 -50 24 -70 l24 -28
206 0 206 0 0 -32 c0 -51 55 -67 139 -42 25 7 44 7 64 0 27 -10 27 -11 27
-106 0 -52 -3 -95 -6 -95 -3 0 -18 9 -32 21 -26 20 -33 21 -209 14 -179 -7
-293 3 -293 26 0 5 6 9 13 9 7 0 44 15 83 34 48 23 81 47 103 75 l33 42 -63
-35 c-35 -19 -104 -44 -154 -56 -117 -29 -115 -28 -115 -54 0 -23 12 -49 90
-191 25 -44 50 -100 56 -125 l13 -45 0 56 c1 31 -6 75 -14 98 -8 22 -12 41 -9
41 3 0 31 -22 61 -49 116 -104 295 -165 421 -143 107 18 193 80 317 229 33 39
61 70 63 69 1 -2 -11 -41 -28 -87 -31 -84 -31 -84 -6 -54 38 45 96 159 96 188
0 27 -38 65 -93 94 l-31 16 18 -29 c10 -16 28 -39 38 -51 l20 -22 -33 -5 c-19
-3 -81 -7 -138 -8 l-104 -3 -23 61 -23 62 30 6 c37 7 115 60 130 88 6 12 8 37
5 60 -6 38 -6 39 16 26 31 -17 221 -14 318 5 41 8 78 13 83 10 4 -2 7 -51 7
-109 0 -123 -8 -146 -82 -244 -29 -38 -80 -109 -113 -157 -78 -113 -152 -188
-193 -198 -35 -7 -56 -32 -68 -79 -9 -37 -114 -149 -160 -171 -31 -14 -60 -16
-183 -13 -170 4 -193 13 -243 86 -18 26 -50 67 -73 91 -24 26 -75 113 -127
215 -73 142 -87 165 -88 137 0 -56 29 -150 81 -264 28 -60 49 -112 47 -116 -2
-5 -73 38 -159 95 -153 101 -156 104 -163 145 -9 57 -31 95 -66 116 -21 12
-28 22 -24 33 4 8 9 38 11 66 7 70 -15 110 -74 136 -46 20 -93 21 -174 2 -25
-6 -27 -3 -36 43 -8 41 -5 58 16 118 22 62 25 85 24 205 -1 142 -23 301 -48
350 -8 16 -15 34 -15 40 0 12 6 7 154 -119z m1800 -224 c13 -71 -2 -128 -37
-145 -16 -8 -86 -21 -155 -29 -154 -19 -235 -13 -257 21 -18 27 -37 120 -29
141 13 33 184 64 344 62 l125 -2 9 -48z m-2389 -1 c63 -37 125 -140 153 -258
14 -56 9 -74 -47 -156 -57 -83 -91 -160 -91 -208 0 -73 41 -84 113 -29 122 93
355 206 438 213 51 4 59 1 88 -24 36 -32 51 -96 32 -132 -6 -11 -59 -46 -118
-77 -133 -70 -303 -175 -303 -187 0 -16 20 -8 127 51 128 71 250 121 291 121
66 0 113 -74 98 -154 -6 -30 -18 -41 -92 -88 -203 -126 -324 -210 -324 -224 0
-7 3 -14 6 -14 4 0 59 31 123 69 156 92 250 141 273 141 48 0 78 -45 78 -117
0 -48 -32 -75 -178 -151 -108 -57 -214 -131 -187 -131 6 0 44 17 85 39 213
112 220 115 238 103 21 -13 22 -81 2 -118 -23 -44 -116 -106 -226 -151 -58
-24 -114 -44 -123 -45 -9 0 -4 -5 12 -11 15 -5 27 -16 27 -24 0 -13 -145 -87
-197 -100 -70 -18 -161 63 -259 230 -64 108 -194 450 -194 510 0 12 16 69 36
127 28 82 37 125 41 204 5 110 -1 136 -71 306 -41 97 -59 181 -50 222 3 15 17
41 31 57 21 26 32 30 76 30 35 0 63 -7 92 -24z m1821 -71 c11 -44 31 -101 43
-128 12 -26 20 -55 17 -65 -9 -26 -86 -82 -113 -82 -13 0 -38 8 -56 17 -18 9
-61 19 -97 22 -58 5 -65 9 -68 28 -3 18 5 27 32 40 35 16 37 16 58 -4 54 -49
131 -59 164 -22 19 22 19 22 -3 10 -50 -26 -107 -1 -139 61 -13 25 -15 47 -9
107 4 42 12 82 18 89 7 9 30 12 71 10 l61 -3 21 -80z m-315 25 c20 -11 21 -17
16 -88 -3 -44 -11 -81 -20 -89 -34 -34 -393 -46 -431 -14 -12 10 -16 32 -16
97 l0 83 53 10 c88 17 117 19 249 16 72 -2 136 -9 149 -15z m509 -492 c0 -22
-154 -162 -205 -188 -104 -51 -310 -35 -457 34 -55 26 -158 119 -158 143 0 16
-7 16 83 -1 232 -45 511 -46 632 -3 82 28 105 32 105 15z m143 -339 c66 -33
174 -107 196 -133 11 -13 2 -23 -71 -69 -82 -54 -268 -144 -381 -186 -33 -12
-127 -36 -210 -53 -143 -30 -164 -32 -367 -33 -203 0 -252 4 -400 36 l-45 10
-2 62 c-1 34 -2 103 -2 153 1 88 -1 93 -30 127 -31 34 -39 57 -22 57 5 0 14
-6 21 -14 23 -28 156 -104 255 -146 55 -23 114 -55 130 -71 17 -15 53 -38 80
-51 43 -19 66 -22 160 -22 232 2 406 76 466 198 20 40 135 166 151 166 5 0 37
-14 71 -31z"/>
<path d="M2092 2849 c-18 -5 -46 -18 -62 -28 -29 -17 -29 -17 79 -13 123 5
182 -9 247 -58 43 -32 80 -38 109 -16 17 13 15 16 -36 45 -116 67 -254 96
-337 70z"/>
<path d="M3265 2726 c-87 -27 -151 -78 -139 -109 7 -19 20 -22 29 -7 11 17 96
57 186 86 77 26 81 29 54 35 -46 10 -86 9 -130 -5z"/>
<path d="M3165 2538 c-28 -16 -43 -36 -69 -93 -26 -56 -56 -177 -56 -226 l0
-32 23 21 c17 17 36 22 73 22 28 0 59 7 71 15 29 21 43 72 33 126 -10 52 -7
59 24 59 27 0 48 -21 70 -70 9 -19 14 -27 11 -17 -3 10 -5 30 -5 44 0 15 -13
38 -34 59 -28 28 -42 34 -75 34 -80 0 -29 49 53 51 26 0 28 2 11 9 -29 12
-107 11 -130 -2z m65 -178 c0 -20 -23 -32 -45 -24 -20 8 -19 31 2 42 22 13 43
4 43 -18z"/>
<path d="M2610 1182 l-45 -5 65 -13 c117 -25 137 -27 145 -14 4 6 3 15 -1 20
-12 11 -109 18 -164 12z"/>
</g>
</svg>
